<?xml version="1.0" encoding="UTF-8" standalone="no"?>
<!DOCTYPE svg PUBLIC "-//W3C//DTD SVG 1.1//EN" "http://www.w3.org/Graphics/SVG/1.1/DTD/svg11.dtd">
<svg width="100%" height="100%" viewBox="0 0 1835 2006" version="1.1" xmlns="http://www.w3.org/2000/svg" xmlns:xlink="http://www.w3.org/1999/xlink" xml:space="preserve" xmlns:serif="http://www.serif.com/" style="fill-rule:evenodd;clip-rule:evenodd;stroke-linejoin:round;stroke-miterlimit:2;">
    <g id="Artboard2" transform="matrix(1,0,0,1,-418.46,-165)">
        <rect x="418.46" y="165" width="1834.12" height="2005.28" style="fill:none;"/>
        <clipPath id="_clip1">
            <rect x="418.46" y="165" width="1834.12" height="2005.28"/>
        </clipPath>
        <g clip-path="url(#_clip1)">
            <g id="Logo" transform="matrix(4.16667,0,0,4.16667,418.922,165)">
                <g id="SN">
                    <g transform="matrix(1,0,0,1,350.992,338.72)">
                        <path d="M0,-273.79L0,-155.617C0.531,-155.812 0.708,-156.195 0.962,-156.489C6.456,-162.875 11.937,-169.273 17.43,-175.659C29.431,-189.621 41.43,-203.586 53.456,-217.529C54.143,-218.322 54.165,-218.768 53.403,-219.544C44.561,-228.57 35.755,-237.634 26.946,-246.69C20.173,-253.649 13.432,-260.634 6.626,-267.557C4.467,-269.754 2.141,-271.785 0,-273.79M-31.434,-151.46C-31.342,-151.485 -31.253,-151.51 -31.161,-151.535L-31.161,-152.461C-31.161,-194.598 -31.165,-236.738 -31.136,-278.877C-31.135,-280.001 -31.448,-280.265 -32.537,-280.262C-43.895,-280.223 -55.252,-280.237 -66.608,-280.237C-75.237,-280.237 -83.868,-280.239 -92.495,-280.237C-93.848,-280.237 -93.855,-280.23 -93.253,-278.985C-91.611,-275.589 -89.96,-272.199 -88.317,-268.806C-77.649,-246.789 -66.987,-224.769 -56.318,-202.75C-49.705,-189.109 -43.088,-175.47 -36.471,-161.83C-34.794,-158.373 -33.113,-154.916 -31.434,-151.46M-98.223,-41.614C-98.092,-41.591 -97.957,-41.568 -97.823,-41.545C-97.454,-41.964 -97.079,-42.377 -96.714,-42.8C-92.924,-47.214 -89.137,-51.631 -85.343,-56.043C-70.57,-73.235 -55.797,-90.429 -41.008,-107.609C-40.514,-108.183 -40.451,-108.619 -40.785,-109.304C-46.825,-121.621 -52.836,-133.949 -58.856,-146.276C-64.543,-157.916 -70.232,-169.56 -75.921,-181.199C-82.998,-195.685 -90.077,-210.173 -97.167,-224.656C-97.321,-224.971 -97.362,-225.417 -97.897,-225.584C-97.929,-164.207 -97.784,-102.909 -98.223,-41.614M-238.645,-280.136C-238.983,-280.187 -239.131,-280.233 -239.278,-280.233C-243.813,-280.237 -248.348,-280.225 -252.883,-280.251C-253.529,-280.255 -253.918,-279.936 -254.319,-279.525C-260.659,-272.989 -267,-266.454 -273.35,-259.927C-286.332,-246.586 -299.321,-233.252 -312.3,-219.909C-313.696,-218.474 -313.9,-218.924 -312.429,-217.21C-307.256,-211.183 -302.066,-205.17 -296.89,-199.148C-282.328,-182.2 -267.769,-165.25 -253.211,-148.301C-241.709,-134.913 -230.209,-121.523 -218.705,-108.137C-211.256,-99.464 -203.794,-90.803 -196.37,-82.109C-195.743,-81.375 -195.107,-81.099 -194.195,-81.251C-192.652,-81.503 -191.092,-81.652 -189.565,-81.97C-180.132,-83.936 -173.403,-89.182 -170.162,-98.405C-167.777,-105.192 -167.327,-112.203 -168.501,-119.288C-169.542,-125.575 -172.744,-130.538 -178.012,-134.169C-180.396,-135.811 -182.875,-137.279 -185.479,-138.54C-191.77,-141.592 -198.447,-143.643 -205.009,-145.979C-213.696,-149.071 -222.343,-152.222 -230.503,-156.588C-239.449,-161.377 -246.614,-167.88 -251.171,-177.083C-254.094,-182.988 -256.041,-189.198 -257.264,-195.648C-259.236,-206.071 -259.582,-216.586 -259.005,-227.153C-258.55,-235.477 -257.225,-243.645 -254.738,-251.605C-251.432,-262.186 -246.42,-271.828 -238.645,-280.136M-165.596,-280.237C-165.533,-279.741 -165.246,-279.624 -165.054,-279.438C-161.586,-276.015 -158.455,-272.32 -155.827,-268.207C-149.015,-257.544 -145.655,-245.697 -143.865,-233.309C-143.053,-227.707 -142.745,-222.064 -142.444,-216.42C-142.398,-215.541 -142.71,-215.357 -143.528,-215.361C-152.88,-215.387 -162.233,-215.393 -171.586,-215.354C-172.566,-215.35 -172.73,-215.669 -172.776,-216.57C-173.074,-222.277 -173.883,-227.9 -175.862,-233.3C-178.409,-240.256 -182.551,-245.895 -189.283,-249.32C-194.653,-252.055 -200.401,-252.816 -206.346,-252.253C-216.571,-251.281 -223.898,-246.199 -227.731,-236.612C-230.656,-229.292 -230.88,-221.668 -229.148,-214.016C-227.843,-208.255 -224.583,-203.838 -219.481,-200.802C-217.306,-199.509 -215.064,-198.349 -212.758,-197.311C-204.933,-193.79 -196.804,-191.032 -188.83,-187.887C-182.085,-185.227 -175.157,-183.016 -168.678,-179.708C-161.696,-176.148 -155.481,-171.616 -150.673,-165.341C-144.336,-157.077 -141.047,-147.551 -139.29,-137.426C-137.32,-126.093 -137.113,-114.692 -138.298,-103.263C-139.451,-92.151 -142.239,-81.492 -147.382,-71.524C-152.044,-62.485 -158.027,-54.532 -166.56,-48.751C-167.328,-48.231 -166.981,-47.942 -166.592,-47.489C-154.536,-33.463 -142.485,-19.43 -130.425,-5.408C-130.183,-5.125 -130.006,-4.594 -129.534,-4.739C-129.046,-4.891 -129.042,-5.41 -129.044,-5.862C-129.046,-6.062 -129.044,-6.262 -129.044,-6.462C-128.962,-36.283 -129.019,-66.103 -128.955,-95.923C-128.821,-156.855 -128.916,-217.785 -128.888,-278.717C-128.888,-279.881 -129.097,-280.278 -130.376,-280.27C-141.695,-280.212 -153.014,-280.237 -164.333,-280.237L-165.596,-280.237ZM-0.315,-301.285C3.888,-299.322 3.808,-299.542 5.473,-298.331C6.969,-297.243 8.207,-295.855 9.511,-294.548C23.528,-280.471 37.305,-266.16 51.157,-251.922C59.41,-243.437 67.653,-234.942 75.889,-226.439C77.062,-225.229 78.142,-223.931 79.311,-222.716C80.048,-221.949 80.079,-221.359 79.343,-220.493C74.844,-215.208 70.413,-209.867 65.948,-204.55C49.12,-184.517 32.291,-164.484 15.458,-144.457C-0.397,-125.598 -16.261,-106.747 -32.118,-87.891C-49.317,-67.437 -66.509,-46.977 -83.719,-26.531C-96.769,-11.026 -109.836,4.46 -122.91,19.942C-124.85,22.239 -126.901,24.446 -128.846,26.739C-129.488,27.495 -129.88,27.434 -130.496,26.72C-135.969,20.369 -141.49,14.058 -146.953,7.7C-156.921,-3.892 -166.893,-15.477 -176.795,-27.122C-186.591,-38.642 -196.318,-50.223 -206.052,-61.797C-217.235,-75.088 -228.384,-88.407 -239.565,-101.697C-250.899,-115.172 -262.261,-128.625 -273.6,-142.095C-284.477,-155.011 -295.34,-167.941 -306.211,-180.863C-316.952,-193.633 -327.695,-206.399 -338.428,-219.172C-340.137,-221.207 -340.095,-221.209 -338.273,-223.175C-329.624,-232.507 -320.646,-241.522 -311.771,-250.634C-297.014,-265.783 -282.202,-280.878 -267.437,-296.021C-265.402,-298.107 -263.066,-299.623 -260.285,-300.474C-259.479,-300.722 -257.542,-301.285 -257.542,-301.285L-0.315,-301.285Z" style="fill:rgb(236,196,18);"/>
                    </g>
                    <g transform="matrix(1,0,0,1,185.396,334.085)">
                        <path d="M0,-275.602L1.261,-275.602C12.582,-275.602 23.901,-275.577 35.22,-275.637C36.501,-275.643 36.708,-275.246 36.706,-274.082C36.68,-213.15 36.775,-152.219 36.643,-91.288C36.577,-61.468 36.634,-31.648 36.552,-1.827C36.552,-1.627 36.551,-1.427 36.552,-1.227C36.556,-0.775 36.551,-0.256 36.062,-0.104C35.592,0.041 35.415,-0.49 35.171,-0.773C23.111,-14.796 11.062,-28.828 -0.995,-42.854C-1.385,-43.307 -1.732,-43.596 -0.964,-44.116C7.57,-49.897 13.553,-57.85 18.214,-66.889C23.356,-76.857 26.145,-87.516 27.298,-98.628C28.483,-110.057 28.276,-121.458 26.308,-132.791C24.549,-142.917 21.26,-152.442 14.925,-160.706C10.113,-166.981 3.9,-171.513 -3.082,-175.075C-9.562,-178.382 -16.489,-180.592 -23.234,-183.252C-31.209,-186.398 -39.337,-189.155 -47.163,-192.678C-49.467,-193.712 -51.71,-194.872 -53.885,-196.167C-58.986,-199.203 -62.247,-203.62 -63.552,-209.38C-65.284,-217.031 -65.06,-224.657 -62.135,-231.978C-58.302,-241.565 -50.975,-246.646 -40.752,-247.618C-34.804,-248.181 -29.057,-247.42 -23.685,-244.685C-16.953,-241.26 -12.812,-235.621 -10.266,-228.665C-8.287,-223.265 -7.479,-217.644 -7.18,-211.935C-7.134,-211.034 -6.971,-210.715 -5.99,-210.719C3.363,-210.758 12.717,-210.752 22.068,-210.726C22.886,-210.722 23.198,-210.906 23.152,-211.785C22.851,-217.431 22.543,-223.074 21.732,-228.674C19.941,-241.062 16.581,-252.909 9.768,-263.573C7.141,-267.685 4.01,-271.38 0.542,-274.803C0.352,-274.989 0.064,-275.103 0,-275.602" style="fill:rgb(196,3,1);"/>
                    </g>
                    <g transform="matrix(1,0,0,1,112.347,257.502)">
                        <path d="M0,-198.918C-7.775,-190.61 -12.786,-180.968 -16.093,-170.387C-18.58,-162.428 -19.904,-154.259 -20.36,-145.937C-20.937,-135.368 -20.592,-124.853 -18.618,-114.43C-17.397,-107.98 -15.448,-101.77 -12.525,-95.865C-7.97,-86.663 -0.804,-80.159 8.142,-75.37C16.304,-71.006 24.949,-67.853 33.636,-64.761C40.2,-62.425 46.875,-60.374 53.167,-57.322C55.77,-56.061 58.25,-54.593 60.634,-52.951C65.901,-49.32 69.103,-44.359 70.144,-38.07C71.317,-30.986 70.871,-23.974 68.483,-17.187C65.242,-7.964 58.513,-2.719 49.081,-0.753C47.555,-0.434 45.992,-0.285 44.451,-0.034C43.539,0.119 42.901,-0.158 42.276,-0.891C34.851,-9.585 27.39,-18.246 19.94,-26.919C8.437,-40.305 -3.064,-53.695 -14.565,-67.085C-29.124,-84.031 -43.682,-100.982 -58.245,-117.93C-63.421,-123.952 -68.61,-129.967 -73.784,-135.992C-75.254,-137.706 -75.051,-137.256 -73.656,-138.691C-60.675,-152.035 -47.686,-165.368 -34.705,-178.709C-28.355,-185.236 -22.013,-191.772 -15.673,-198.307C-15.273,-198.718 -14.884,-199.037 -14.237,-199.033C-9.702,-199.007 -5.167,-199.019 -0.632,-199.015C-0.484,-199.015 -0.337,-198.969 0,-198.918" style="fill:rgb(196,3,1);"/>
                    </g>
                    <g transform="matrix(1,0,0,1,252.77,113.205)">
                        <path d="M0,183.901C0.439,122.606 0.292,61.308 0.326,-0.069C0.861,0.098 0.902,0.544 1.056,0.859C8.147,15.341 15.225,29.828 22.304,44.315C27.991,55.955 33.68,67.598 39.365,79.238C45.387,91.565 51.398,103.892 57.437,116.21C57.772,116.896 57.708,117.332 57.216,117.905C42.425,135.085 27.654,152.279 12.878,169.472C9.086,173.883 5.299,178.301 1.509,182.714C1.146,183.138 0.769,183.55 0.397,183.97C0.266,183.947 0.131,183.924 0,183.901" style="fill:rgb(196,3,1);"/>
                    </g>
                    <g transform="matrix(1,0,0,1,319.559,58.4544)">
                        <path d="M0,128.805C-1.679,125.349 -3.36,121.892 -5.037,118.435C-11.654,104.796 -18.271,91.156 -24.882,77.513C-35.553,55.497 -46.216,33.476 -56.883,11.459C-58.529,8.066 -60.179,4.676 -61.819,1.281C-62.421,0.036 -62.414,0.028 -61.061,0.028C-52.432,0.027 -43.803,0.028 -35.176,0.028C-23.818,0.028 -12.462,0.043 -1.103,0.004C-0.014,0 0.299,0.264 0.297,1.389C0.269,43.529 0.271,85.666 0.271,127.804L0.271,128.731C0.181,128.757 0.092,128.78 0,128.805" style="fill:rgb(196,3,1);"/>
                    </g>
                    <g transform="matrix(1,0,0,1,350.992,183.103)">
                        <path d="M0,-118.173C2.141,-116.168 4.467,-114.137 6.626,-111.94C13.432,-105.017 20.173,-98.032 26.946,-91.073C35.755,-82.017 44.561,-72.953 53.403,-63.927C54.165,-63.151 54.143,-62.705 53.456,-61.912C41.43,-47.969 29.431,-34.004 17.43,-20.042C11.937,-13.656 6.456,-7.258 0.962,-0.872C0.708,-0.578 0.531,-0.195 0,0L0,-118.173Z" style="fill:rgb(196,3,1);"/>
                    </g>
                </g>
                <g id="Text">
                    <g transform="matrix(1,0,0,1,13.6817,10.752)">
                        <path d="M0,5.377C-1.148,5.209 -2.191,4.914 -3.129,4.494C-4.068,4.074 -4.872,3.557 -5.545,2.939C-6.216,2.324 -6.741,1.611 -7.119,0.799C-7.497,-0.014 -7.686,-0.908 -7.686,-1.889L-7.686,-3.695C-7.686,-5.627 -6.959,-7.279 -5.503,-8.652C-4.019,-10.051 -2.226,-10.752 -0.126,-10.752L32.088,-10.752L32.088,-4.242L3.276,-4.242L3.276,-0.504L24.234,-0.504C25.381,-0.391 26.439,-0.174 27.405,0.147C28.371,0.469 29.196,0.897 29.883,1.428C30.568,1.961 31.107,2.604 31.5,3.361C31.892,4.117 32.088,4.971 32.088,5.922L32.088,9.072C32.088,11.033 31.332,12.699 29.82,14.07C28.364,15.443 26.558,16.129 24.402,16.129L-7.728,16.129L-7.728,9.871L21,9.871L21,5.377L0,5.377Z" style="fill:rgb(236,196,18);fill-rule:nonzero;"/>
                    </g>
                    <g transform="matrix(1,0,0,1,60.3428,6.7212)">
                        <path d="M0,13.482L19.152,13.482L19.152,-6.678L29.274,-6.678L29.274,20.16L-3.192,20.16C-5.124,20.16 -6.776,19.474 -8.148,18.101C-9.548,16.701 -10.248,15.035 -10.248,13.103L-10.248,-6.678L0,-6.678L0,13.482Z" style="fill:rgb(236,196,18);fill-rule:nonzero;"/>
                    </g>
                    <g transform="matrix(1,0,0,1,122.629,15.92)">
                        <path d="M0,-4.916L0,-9.41L-17.472,-9.41L-17.472,10.961L-28.812,10.961L-28.812,-15.877L3.486,-15.877C5.67,-15.877 7.532,-15.191 9.072,-13.82C10.64,-12.42 11.424,-10.768 11.424,-8.863L11.424,-5.672C11.424,-3.768 10.64,-2.115 9.072,-0.715C7.532,0.656 5.67,1.342 3.486,1.342L-11.802,1.342L-11.802,-4.916L0,-4.916Z" style="fill:rgb(236,196,18);fill-rule:nonzero;"/>
                    </g>
                    <g transform="matrix(1,0,0,1,0,-339.077)">
                        <path d="M154.212,349.493L175.548,349.493L175.548,355.331L154.212,355.331L154.212,349.493ZM148.165,359.28L177.522,359.28L177.522,365.958L145.056,365.958C143.096,365.958 141.43,365.272 140.059,363.899C138.686,362.528 138,360.862 138,358.901L138,346.175C138,344.216 138.686,342.55 140.059,341.177C141.43,339.806 143.096,339.12 145.056,339.12L177.396,339.12L177.396,345.798L148.165,345.798L148.165,359.28Z" style="fill:rgb(236,196,18);fill-rule:nonzero;"/>
                    </g>
                    <g transform="matrix(1,0,0,1,192.138,20.4548)">
                        <path d="M0,-13.945L0,6.426L-10.458,6.426L-10.458,-20.412L20.58,-20.412C22.624,-20.412 24.332,-19.726 25.704,-18.355C27.132,-16.955 27.846,-15.289 27.846,-13.357L27.846,-10.207C27.846,-9.394 27.713,-8.625 27.447,-7.896C27.181,-7.168 26.81,-6.509 26.334,-5.922C25.857,-5.334 25.291,-4.824 24.633,-4.39C23.975,-3.955 23.268,-3.64 22.512,-3.445L28.813,6.467L7.266,6.467L7.266,-9.451L17.346,-9.451L17.346,-13.945L0,-13.945Z" style="fill:rgb(236,196,18);fill-rule:nonzero;"/>
                    </g>
                    <g transform="matrix(1,0,0,1,254.927,0.0429)">
                        <path d="M0,26.838L0,6.678L-19.152,6.678L-19.152,26.838L-29.273,26.838L-29.273,0L3.193,0C5.125,0 6.775,0.686 8.148,2.057C9.549,3.457 10.248,5.123 10.248,7.055L10.248,26.838L0,26.838Z" style="fill:rgb(236,196,18);fill-rule:nonzero;"/>
                    </g>
                    <g transform="matrix(1,0,0,1,308.982,26.881)">
                        <path d="M0,-26.838L0,-7.057C0,-5.125 -0.7,-3.459 -2.1,-2.059C-3.473,-0.686 -5.124,0 -7.056,0L-32.424,0C-34.441,0 -36.148,-0.699 -37.548,-2.1C-38.864,-3.416 -39.522,-4.971 -39.522,-6.762L-39.522,-26.838L-29.4,-26.838L-29.4,-6.678L-10.248,-6.678L-10.248,-26.838L0,-26.838Z" style="fill:rgb(236,196,18);fill-rule:nonzero;"/>
                    </g>
                    <g transform="matrix(1,0,0,1,323.513,0.0839)">
                        <path d="M0,26.797L-10.458,26.797L-10.458,-0.041L20.58,-0.041C22.624,-0.041 24.332,0.645 25.704,2.016C27.133,3.416 27.847,5.082 27.847,7.014L27.847,10.164C27.847,10.977 27.727,11.746 27.489,12.475C27.251,13.203 26.866,13.867 26.334,14.469C25.802,15.072 25.116,15.582 24.276,16.002C23.437,16.422 22.414,16.717 21.21,16.885L28.812,26.838L17.683,26.838L7.267,10.92L17.347,10.92L17.347,6.426L0,6.426L0,26.797Z" style="fill:rgb(236,196,18);fill-rule:nonzero;"/>
                    </g>
                    <g transform="matrix(1,0,0,1,0,-339.077)">
                        <path d="M386.387,345.798L367.151,345.798L367.151,359.28L386.387,359.28L386.387,345.798ZM357.029,365.958L357.029,345.798L356.987,345.798L356.987,339.12L389.496,339.12C391.427,339.12 393.079,339.806 394.452,341.177C395.851,342.577 396.551,344.243 396.551,346.175L396.551,358.901C396.551,360.833 395.851,362.499 394.452,363.899C393.079,365.272 391.427,365.958 389.496,365.958L357.029,365.958Z" style="fill:rgb(236,196,18);fill-rule:nonzero;"/>
                    </g>
                    <g transform="matrix(1,0,0,1,408.101,10.752)">
                        <path d="M0,5.377C-1.148,5.209 -2.191,4.914 -3.129,4.494C-4.067,4.074 -4.872,3.557 -5.544,2.939C-6.216,2.324 -6.741,1.611 -7.119,0.799C-7.497,-0.014 -7.686,-0.908 -7.686,-1.889L-7.686,-3.695C-7.686,-5.627 -6.958,-7.279 -5.502,-8.652C-4.018,-10.051 -2.227,-10.752 -0.126,-10.752L32.088,-10.752L32.088,-4.367L3.275,-4.367L3.275,-0.504L24.233,-0.504C25.382,-0.391 26.439,-0.174 27.405,0.147C28.371,0.469 29.196,0.897 29.883,1.428C30.568,1.961 31.107,2.604 31.5,3.361C31.892,4.117 32.088,4.971 32.088,5.922L32.088,9.072C32.088,11.033 31.332,12.699 29.819,14.07C28.363,15.443 26.558,16.129 24.401,16.129L-7.728,16.129L-7.728,9.871L21,9.871L21,5.377L0,5.377Z" style="fill:rgb(236,196,18);fill-rule:nonzero;"/>
                    </g>
                    <g transform="matrix(1,0,0,1,7.1988,132.985)">
                        <path d="M0,12.135L5.866,7.178L1.156,1.606L-4.709,6.563L-7.199,3.617L0.61,-2.982L8.594,6.464C9.069,7.026 9.275,7.676 9.213,8.412C9.15,9.164 8.838,9.778 8.276,10.252L2.521,15.117L0,12.135Z" style="fill:rgb(236,196,18);fill-rule:nonzero;"/>
                    </g>
                    <g transform="matrix(1,0,0,1,18.0518,156.369)">
                        <path d="M0,-8.124L6.734,-0.157L5.072,1.247L-1.662,-6.72L-2.835,-5.728L4.384,2.814L2.429,4.466L-5.555,-4.981C-6.037,-5.55 -6.247,-6.204 -6.185,-6.94C-6.123,-7.677 -5.807,-8.286 -5.237,-8.769L-1.534,-11.897C-0.964,-12.38 -0.311,-12.59 0.426,-12.527C1.163,-12.466 1.772,-12.149 2.254,-11.58L10.207,-2.171L8.264,-0.528L1.076,-9.033L0,-8.124Z" style="fill:rgb(236,196,18);fill-rule:nonzero;"/>
                    </g>
                    <g transform="matrix(1,0,0,1,39.0933,157.12)">
                        <path d="M0,9.898L-11.713,11.878L-13.944,9.239L-10.039,-1.98L-7.158,1.429L-9.576,7.79L-2.882,6.489L0,9.898Z" style="fill:rgb(236,196,18);fill-rule:nonzero;"/>
                    </g>
                    <g transform="matrix(1,0,0,1,39.2764,181.481)">
                        <path d="M0,-8.125L6.734,-0.157L5.073,1.247L-1.662,-6.721L-2.835,-5.729L4.385,2.813L2.43,4.465L-5.554,-4.98C-6.036,-5.551 -6.246,-6.204 -6.184,-6.94C-6.123,-7.678 -5.807,-8.286 -5.237,-8.768L-1.534,-11.898C-0.964,-12.38 -0.31,-12.59 0.426,-12.527C1.163,-12.467 1.772,-12.15 2.254,-11.58L10.208,-2.17L8.265,-0.528L1.076,-9.033L0,-8.125Z" style="fill:rgb(236,196,18);fill-rule:nonzero;"/>
                    </g>
                    <g transform="matrix(1,0,0,1,45.3413,188.999)">
                        <path d="M0,1.249L-2.572,-1.794L5.237,-8.394L12.87,0.637C13.372,1.231 13.592,1.898 13.531,2.635C13.475,3.394 13.166,4.012 12.604,4.486L11.687,5.262C11.45,5.461 11.197,5.615 10.927,5.725C10.656,5.835 10.368,5.887 10.062,5.88C9.756,5.873 9.439,5.799 9.11,5.658C8.782,5.518 8.444,5.291 8.1,4.982L7.073,9.643L4.336,6.404L6.406,-0.541L8.885,2.393L10.192,1.287L5.926,-3.76L0,1.249Z" style="fill:rgb(236,196,18);fill-rule:nonzero;"/>
                    </g>
                    <g transform="matrix(1,0,0,1,62.9214,209.327)">
                        <path d="M0,-2.221L4.709,3.351L10.575,-1.606L13.064,1.34L5.256,7.939L-2.728,-1.508C-3.203,-2.07 -3.41,-2.719 -3.348,-3.455C-3.285,-4.207 -2.972,-4.821 -2.411,-5.295L3.345,-10.16L5.866,-7.178L0,-2.221Z" style="fill:rgb(236,196,18);fill-rule:nonzero;"/>
                    </g>
                    <g transform="matrix(1,0,0,1,76.4395,214.906)">
                        <path d="M0,12.136L5.866,7.178L1.156,1.607L-4.71,6.564L-7.199,3.618L0.61,-2.981L8.594,6.465C9.069,7.027 9.275,7.677 9.213,8.413C9.15,9.164 8.838,9.778 8.276,10.253L2.52,15.117L0,12.136Z" style="fill:rgb(236,196,18);fill-rule:nonzero;"/>
                    </g>
                    <g transform="matrix(1,0,0,1,93.0987,231.519)">
                        <path d="M0,3.336L-4.73,-2.262L-8.653,1.055L-3.923,6.65L0,3.336ZM-13.085,-0.248L-7.22,-5.206L-7.23,-5.219L-5.287,-6.861L2.707,2.598C3.182,3.16 3.389,3.81 3.327,4.546C3.264,5.297 2.952,5.911 2.39,6.386L-1.313,9.516C-1.875,9.99 -2.532,10.197 -3.284,10.133C-4.02,10.072 -4.626,9.76 -5.102,9.197L-13.085,-0.248Z" style="fill:rgb(236,196,18);fill-rule:nonzero;"/>
                    </g>
                    <g transform="matrix(1,0,0,1,98.065,251.037)">
                        <path d="M0,-8.126L6.734,-0.157L5.072,1.247L-1.662,-6.722L-2.835,-5.73L4.384,2.812L2.429,4.465L-5.555,-4.981C-6.037,-5.552 -6.247,-6.204 -6.185,-6.941C-6.123,-7.679 -5.807,-8.287 -5.237,-8.769L-1.534,-11.899C-0.964,-12.381 -0.311,-12.591 0.426,-12.528C1.163,-12.467 1.772,-12.151 2.254,-11.581L10.207,-2.171L8.264,-0.529L1.076,-9.034L0,-8.126Z" style="fill:rgb(236,196,18);fill-rule:nonzero;"/>
                    </g>
                    <g transform="matrix(1,0,0,1,104.13,258.554)">
                        <path d="M0,1.25L-2.572,-1.793L5.236,-8.393L12.869,0.637C13.372,1.232 13.592,1.898 13.53,2.635C13.474,3.395 13.165,4.012 12.604,4.486L11.686,5.262C11.45,5.461 11.197,5.615 10.927,5.725C10.656,5.835 10.368,5.887 10.062,5.88C9.756,5.873 9.439,5.799 9.11,5.658C8.781,5.518 8.444,5.291 8.099,4.982L7.073,9.643L4.336,6.404L6.406,-0.541L8.885,2.393L10.192,1.287L5.926,-3.76L0,1.25Z" style="fill:rgb(236,196,18);fill-rule:nonzero;"/>
                    </g>
                    <g transform="matrix(1,0,0,1,119.424,276.306)">
                        <path d="M0,-8.123L6.734,-0.156L5.072,1.248L-1.662,-6.719L-2.835,-5.728L4.385,2.815L2.43,4.467L-5.555,-4.98C-6.037,-5.55 -6.247,-6.203 -6.185,-6.939C-6.123,-7.676 -5.807,-8.285 -5.237,-8.768L-1.534,-11.896C-0.964,-12.379 -0.311,-12.59 0.426,-12.527C1.163,-12.465 1.772,-12.149 2.254,-11.579L10.206,-2.17L8.264,-0.527L1.076,-9.033L0,-8.123Z" style="fill:rgb(236,196,18);fill-rule:nonzero;"/>
                    </g>
                    <g transform="matrix(1,0,0,1,127.884,287.341)">
                        <path d="M0,-5.779C-0.234,-6.154 -0.405,-6.529 -0.513,-6.906C-0.622,-7.283 -0.669,-7.644 -0.655,-7.99C-0.641,-8.338 -0.563,-8.666 -0.419,-8.975C-0.276,-9.285 -0.061,-9.56 0.224,-9.801L0.749,-10.246C1.312,-10.72 1.971,-10.916 2.728,-10.828C3.501,-10.741 4.145,-10.392 4.661,-9.781L12.583,-0.409L10.726,1.16L3.641,-7.221L2.516,-6.271L7.67,-0.174C7.92,0.188 8.116,0.549 8.26,0.91C8.404,1.269 8.482,1.614 8.497,1.945C8.511,2.276 8.456,2.59 8.333,2.891C8.21,3.191 8.008,3.457 7.732,3.692L6.815,4.466C6.245,4.948 5.574,5.137 4.804,5.035C4.046,4.95 3.402,4.592 2.872,3.965L-5.029,-5.383L-3.208,-6.922L3.857,1.437L5.164,0.331L0,-5.779Z" style="fill:rgb(236,196,18);fill-rule:nonzero;"/>
                    </g>
                    <g transform="matrix(1,0,0,1,149.284,289.175)">
                        <path d="M0,12.154L-3.439,8.085L-9.305,13.043L-12.083,9.756L-6.218,4.797L-9.636,0.754L-7.693,-0.889L1.943,10.511L0,12.154Z" style="fill:rgb(236,196,18);fill-rule:nonzero;"/>
                    </g>
                    <g transform="matrix(-0.645382,-0.76386,-0.76386,0.645382,155.073,304.678)">
                        <rect x="0.613" y="-0.284" width="4.002" height="10.224" style="fill:rgb(236,196,18);"/>
                    </g>
                    <g transform="matrix(1,0,0,1,166.44,313.876)">
                        <path d="M0,3.811C0.475,4.373 0.682,5.023 0.62,5.759C0.558,6.496 0.242,7.105 -0.328,7.586L-6.083,12.452L-8.583,9.495L-2.717,4.538L-5.093,1.725L-10.959,6.683L-13.458,3.726L-7.593,-1.232L-9.968,-4.043L-15.833,0.916L-18.333,-2.042L-10.524,-8.641L0,3.811Z" style="fill:rgb(236,196,18);fill-rule:nonzero;"/>
                    </g>
                    <g transform="matrix(1,0,0,1,172.722,328.448)">
                        <path d="M0,4.082L1.711,2.636L-2.958,-2.888L-4.669,-1.441L-3.182,0.318L0,4.082ZM-8.823,2.07L-11.323,-0.888L-5.567,-5.752C-4.997,-6.234 -4.343,-6.443 -3.607,-6.382C-2.871,-6.32 -2.261,-6.004 -1.779,-5.434L4.418,1.898C4.893,2.46 5.1,3.109 5.037,3.846C4.977,4.567 4.686,5.148 4.165,5.59L-1.676,10.525L-4.155,7.594L-1.662,5.486L-6.33,-0.037L-8.823,2.07Z" style="fill:rgb(236,196,18);fill-rule:nonzero;"/>
                    </g>
                    <g transform="matrix(1,0,0,1,187.746,334.681)">
                        <path d="M0,12.154L-3.439,8.086L-9.305,13.043L-12.083,9.756L-6.217,4.799L-9.636,0.754L-7.693,-0.889L1.943,10.512L0,12.154Z" style="fill:rgb(236,196,18);fill-rule:nonzero;"/>
                    </g>
                    <g transform="matrix(1,0,0,1,190.244,360.097)">
                        <path d="M0,-8.123L6.734,-0.156L5.072,1.248L-1.662,-6.719L-2.835,-5.728L4.385,2.815L2.43,4.467L-5.554,-4.98C-6.036,-5.55 -6.246,-6.203 -6.184,-6.939C-6.123,-7.676 -5.807,-8.285 -5.237,-8.768L-1.534,-11.897C-0.964,-12.379 -0.31,-12.59 0.426,-12.527C1.163,-12.465 1.772,-12.149 2.255,-11.579L10.207,-2.17L8.264,-0.528L1.076,-9.033L0,-8.123Z" style="fill:rgb(236,196,18);fill-rule:nonzero;"/>
                    </g>
                    <g transform="matrix(1,0,0,1,246.125,354.051)">
                        <path d="M0,1.332L5.962,6.299L3.055,9.788L-4.801,3.244L3.826,-7.112C4.395,-7.795 5.07,-8.197 5.854,-8.32C6.66,-8.456 7.346,-8.288 7.912,-7.816L8.834,-7.049C9.072,-6.851 9.26,-6.619 9.398,-6.352C9.538,-6.086 9.627,-5.803 9.668,-5.5C9.707,-5.197 9.699,-4.884 9.643,-4.559C9.588,-4.232 9.483,-3.92 9.33,-3.619L13.982,-3.305L7.994,3.885L3.334,0.003L6.137,-3.361L4.821,-4.457L0,1.332Z" style="fill:rgb(236,196,18);fill-rule:nonzero;"/>
                    </g>
                    <g transform="matrix(1,0,0,1,263.395,344.451)">
                        <path d="M0,-9.676L-5.324,-3.285L-1.377,0.003L3.945,-6.388L0,-9.676ZM0.9,-13.507C1.699,-13.633 2.382,-13.46 2.947,-12.989L6.672,-9.886C7.238,-9.414 7.531,-8.775 7.551,-7.967C7.572,-7.174 7.302,-6.442 6.741,-5.769L-0.275,2.654C-0.828,3.318 -1.496,3.711 -2.278,3.834C-3.062,3.957 -3.74,3.78 -4.313,3.303L-8.039,0.199C-8.612,-0.28 -8.909,-0.914 -8.93,-1.707C-8.949,-2.498 -8.684,-3.227 -8.131,-3.89L-1.115,-12.313C-0.555,-12.985 0.117,-13.383 0.9,-13.507" style="fill:rgb(236,196,18);fill-rule:nonzero;"/>
                    </g>
                    <g transform="matrix(1,0,0,1,278.17,328.517)">
                        <path d="M0,-6.003L-5.814,0.977L-4.498,2.072L1.316,-4.907L0,-6.003ZM-2.52,-8.577L-8.568,-1.317L-7.425,-0.365L-1.377,-7.624L-2.52,-8.577ZM-12.691,-0.218L-3.563,-11.177C-3.041,-11.803 -2.4,-12.163 -1.641,-12.259C-0.865,-12.357 -0.193,-12.171 0.371,-11.699L0.889,-11.269C1.348,-10.887 1.584,-10.396 1.6,-9.798C2.191,-9.892 2.716,-9.747 3.174,-9.364L4.097,-8.597C4.662,-8.125 4.967,-7.499 5.011,-6.719C5.055,-5.954 4.816,-5.259 4.294,-4.634L-4.859,6.354L-12.691,-0.218Z" style="fill:rgb(236,196,18);fill-rule:nonzero;"/>
                    </g>
                    <g transform="matrix(1,0,0,1,287.852,315.092)">
                        <path d="M0,-9.676L-5.323,-3.285L-1.377,0.002L3.947,-6.389L0,-9.676ZM0.901,-13.508C1.7,-13.633 2.383,-13.461 2.947,-12.99L6.673,-9.887C7.238,-9.415 7.531,-8.776 7.553,-7.967C7.572,-7.174 7.303,-6.442 6.742,-5.77L-0.274,2.654C-0.827,3.316 -1.495,3.711 -2.277,3.833C-3.061,3.957 -3.739,3.779 -4.312,3.301L-8.038,0.198C-8.611,-0.28 -8.908,-0.914 -8.929,-1.707C-8.949,-2.498 -8.684,-3.227 -8.131,-3.891L-1.113,-12.313C-0.554,-12.987 0.118,-13.383 0.901,-13.508" style="fill:rgb(236,196,18);fill-rule:nonzero;"/>
                    </g>
                    <g transform="matrix(1,0,0,1,302.889,299.089)">
                        <path d="M0,-11.724L-3.887,-7.058L2.014,-2.142L-1.127,1.628L-7.027,-3.288L-10.893,1.352L-12.848,-0.277L-1.955,-13.352L0,-11.724Z" style="fill:rgb(236,196,18);fill-rule:nonzero;"/>
                    </g>
                    <g transform="matrix(-0.640033,0.768347,0.768347,0.640033,302.931,288.951)">
                        <rect x="-7.665" y="-3.591" width="4.559" height="10.224" style="fill:rgb(236,196,18);"/>
                    </g>
                    <g transform="matrix(1,0,0,1,314.961,270.156)">
                        <path d="M0,10.742L8.125,0.988L10.08,2.617L1.09,13.408C0.545,14.062 -0.119,14.451 -0.902,14.574C-1.685,14.697 -2.363,14.519 -2.937,14.041L-6.662,10.938C-7.235,10.461 -7.532,9.826 -7.553,9.033C-7.572,8.242 -7.311,7.517 -6.766,6.863L2.247,-3.955L4.202,-2.327L-3.947,7.455L0,10.742Z" style="fill:rgb(236,196,18);fill-rule:nonzero;"/>
                    </g>
                    <g transform="matrix(1,0,0,1,338.006,257.428)">
                        <path d="M0,-4.194L-3.946,-7.482L-12.118,2.327L-14.073,0.701L-5.037,-10.147C-4.5,-10.792 -3.84,-11.174 -3.057,-11.299C-2.258,-11.424 -1.576,-11.253 -1.011,-10.782L2.715,-7.678C3.279,-7.208 3.573,-6.567 3.594,-5.758C3.613,-4.965 3.355,-4.248 2.818,-3.603L-6.206,7.23L-10.853,3.359L-8.039,-0.018L-5.347,2.224L0,-4.194Z" style="fill:rgb(236,196,18);fill-rule:nonzero;"/>
                    </g>
                    <g transform="matrix(1,0,0,1,346.225,245.02)">
                        <path d="M0,-9.676L-5.324,-3.285L-1.377,0.002L3.946,-6.389L0,-9.676ZM0.9,-13.508C1.699,-13.633 2.382,-13.461 2.947,-12.99L6.672,-9.887C7.238,-9.416 7.531,-8.776 7.551,-7.967C7.572,-7.174 7.302,-6.442 6.741,-5.77L-0.275,2.653C-0.828,3.316 -1.496,3.711 -2.278,3.833C-3.062,3.957 -3.74,3.779 -4.313,3.301L-8.039,0.198C-8.612,-0.28 -8.909,-0.915 -8.93,-1.707C-8.949,-2.498 -8.684,-3.227 -8.131,-3.891L-1.115,-12.314C-0.555,-12.987 0.117,-13.383 0.9,-13.508" style="fill:rgb(236,196,18);fill-rule:nonzero;"/>
                    </g>
                    <g transform="matrix(1,0,0,1,360.229,234.108)">
                        <path d="M0,-19.55C0.537,-20.196 1.197,-20.578 1.98,-20.702C2.764,-20.825 3.441,-20.649 4.016,-20.17L9.807,-15.347L6.98,-11.955L1.08,-16.871L-1.605,-13.649L4.295,-8.733L1.471,-5.34L-4.431,-10.256L-7.116,-7.033L-1.215,-2.117L-4.041,1.275L-11.896,-5.27L0,-19.55Z" style="fill:rgb(236,196,18);fill-rule:nonzero;"/>
                    </g>
                    <g transform="matrix(-0.639926,0.768437,0.768437,0.639926,364.142,215.476)">
                        <rect x="-7.666" y="-3.593" width="4.558" height="10.224" style="fill:rgb(236,196,18);"/>
                    </g>
                    <g transform="matrix(1,0,0,1,383.448,203.539)">
                        <path d="M0,-0.88L-5.9,-5.796L-11.225,0.595L-5.323,5.511L-8.137,8.888L-15.992,2.344L-6.969,-8.488C-6.432,-9.134 -5.771,-9.518 -4.988,-9.641C-4.189,-9.768 -3.508,-9.594 -2.941,-9.123L2.849,-4.299L0,-0.88Z" style="fill:rgb(236,196,18);fill-rule:nonzero;"/>
                    </g>
                    <g transform="matrix(1,0,0,1,391.398,192.452)">
                        <path d="M0,-7.836L-1.722,-9.271L-6.998,-2.936L-5.276,-1.501L-3.595,-3.521L0,-7.836ZM-1.097,1.98L-3.923,5.372L-9.713,0.548C-10.286,0.07 -10.583,-0.565 -10.603,-1.356C-10.624,-2.149 -10.362,-2.872 -9.817,-3.526L-2.813,-11.935C-2.274,-12.58 -1.614,-12.964 -0.833,-13.087C-0.065,-13.208 0.581,-13.05 1.105,-12.613L6.981,-7.718L4.18,-4.355L1.671,-6.443L-3.605,-0.108L-1.097,1.98Z" style="fill:rgb(236,196,18);fill-rule:nonzero;"/>
                    </g>
                    <g transform="matrix(1,0,0,1,404.725,176.842)">
                        <path d="M0,-11.725L-3.888,-7.058L2.014,-2.142L-1.127,1.628L-7.027,-3.288L-10.892,1.35L-12.847,-0.278L-1.955,-13.353L0,-11.725Z" style="fill:rgb(236,196,18);fill-rule:nonzero;"/>
                    </g>
                    <g transform="matrix(-0.639926,0.768437,0.768437,0.639926,404.769,166.705)">
                        <rect x="-7.665" y="-3.593" width="4.557" height="10.224" style="fill:rgb(236,196,18);"/>
                    </g>
                    <g transform="matrix(1,0,0,1,418.186,158.635)">
                        <path d="M0,-9.676L-5.324,-3.285L-1.377,0.002L3.946,-6.389L0,-9.676ZM0.9,-13.507C1.699,-13.633 2.381,-13.46 2.947,-12.989L6.672,-9.886C7.237,-9.414 7.531,-8.776 7.551,-7.967C7.571,-7.174 7.301,-6.442 6.74,-5.769L-0.275,2.654C-0.828,3.317 -1.496,3.711 -2.279,3.834C-3.062,3.957 -3.74,3.779 -4.314,3.301L-8.039,0.198C-8.612,-0.28 -8.909,-0.914 -8.93,-1.707C-8.949,-2.498 -8.684,-3.227 -8.131,-3.89L-1.115,-12.313C-0.555,-12.986 0.117,-13.383 0.9,-13.507" style="fill:rgb(236,196,18);fill-rule:nonzero;"/>
                    </g>
                    <g transform="matrix(1,0,0,1,436.298,140.097)">
                        <path d="M0,-0.882L-5.901,-5.798L-11.225,0.593L-5.323,5.509L-8.137,8.887L-15.993,2.343L-6.97,-8.489C-6.432,-9.136 -5.771,-9.519 -4.989,-9.642C-4.19,-9.769 -3.508,-9.595 -2.942,-9.124L2.849,-4.3L0,-0.882Z" style="fill:rgb(236,196,18);fill-rule:nonzero;"/>
                    </g>
                </g>
            </g>
            <g>
                <g transform="matrix(1,0,0,1,418.46,165)">
                    <path d="M761.344,1900.22L725.551,1900.22L703.457,1964.3C701.984,1968.62 701.591,1972.52 702.278,1976.01C702.966,1979.49 704.586,1982.31 707.139,1984.48L708.465,1986.24C709.84,1988.4 711.754,1990.1 714.209,1991.32C716.664,1992.55 719.512,1993.16 722.752,1993.16L826.449,1993.16L834.697,1969.16L831.604,1964.44L831.899,1963.56L744.258,1963.56L764.143,1905.82L761.049,1901.11L761.344,1900.22Z" style="fill:white;"/>
                </g>
                <g transform="matrix(1,0,0,1,418.46,165)">
                    <path d="M902.895,1900.22L867.103,1900.22L845.008,1964.3C843.535,1968.62 843.142,1972.52 843.83,1976.01C844.517,1979.49 846.137,1982.31 848.691,1984.48L850.016,1986.24C851.391,1988.4 853.306,1990.1 855.761,1991.32C858.216,1992.55 861.063,1993.16 864.304,1993.16L968,1993.16L976.249,1969.16L973.156,1964.44L973.45,1963.56L885.809,1963.56L905.694,1905.82L902.601,1901.11L902.895,1900.22Z" style="fill:white;"/>
                </g>
                <g transform="matrix(1,0,0,1,418.46,165)">
                    <path d="M283.663,1986.24C285.038,1988.4 286.953,1990.1 289.408,1991.32C291.862,1992.55 294.71,1993.16 297.951,1993.16L401.647,1993.16L409.896,1969.16L406.802,1964.44L407.097,1963.56L319.456,1963.56L331.092,1929.68L423.447,1929.68L431.696,1905.82L428.602,1901.11L428.897,1900.22L324.906,1900.22C321.567,1900.22 318.204,1900.86 314.816,1902.14C311.428,1903.41 308.286,1905.13 305.389,1907.29C302.492,1909.45 299.915,1911.98 297.656,1914.88C295.398,1917.77 293.679,1920.89 292.501,1924.23L278.655,1964.3C277.182,1968.62 276.789,1972.52 277.477,1976.01C278.164,1979.49 279.784,1982.31 282.337,1984.48L283.663,1986.24Z" style="fill:white;"/>
                </g>
                <g transform="matrix(1,0,0,1,418.46,165)">
                    <path d="M1274.82,1986.24C1276.98,1989.68 1280.41,1991.84 1285.13,1992.72L1284.98,1992.72L1285.28,1993.16L1369.09,1993.16C1372.33,1993.16 1375.62,1992.55 1378.96,1991.32C1382.3,1990.1 1385.39,1988.4 1388.24,1986.24C1391.08,1984.08 1393.64,1981.55 1395.89,1978.66C1398.15,1975.76 1399.82,1972.69 1400.9,1969.45L1403.56,1961.79C1404.73,1958.45 1405.17,1955.38 1404.88,1952.59C1404.59,1949.79 1403.75,1947.31 1402.38,1945.15L1401.2,1943.53C1400.12,1940.29 1398.18,1937.66 1395.38,1935.65C1392.58,1933.63 1389.02,1932.63 1384.7,1932.63L1330.64,1932.63L1322.54,1956.19L1323.43,1956.19L1326.52,1960.91L1363.49,1960.91L1362.61,1963.56L1310.46,1963.56L1322.1,1929.68L1414.6,1929.68L1422.85,1905.82L1419.76,1901.11L1420.05,1900.22L1316.06,1900.22C1312.72,1900.22 1309.36,1900.86 1305.97,1902.14C1302.58,1903.41 1299.44,1905.13 1296.54,1907.29C1293.65,1909.45 1291.07,1911.98 1288.81,1914.88C1286.55,1917.77 1284.83,1920.89 1283.66,1924.23L1269.81,1964.3C1268.43,1968.42 1268.09,1972.15 1268.78,1975.49C1269.47,1978.83 1270.94,1981.63 1273.2,1983.89L1274.82,1986.24Z" style="fill:white;"/>
                </g>
                <g transform="matrix(1,0,0,1,418.46,165)">
                    <path d="M477.799,1901.11L480.892,1905.82L471.024,1934.69L523.019,1934.69L534.803,1900.22L570.448,1900.22L570.154,1901.11L573.247,1905.82L543.199,1993.16L508.289,1993.16L505.344,1988.45L504.46,1988.45L513.15,1962.97L461.155,1962.97L450.844,1993.16L415.935,1993.16L412.842,1988.45L411.958,1988.45L442.301,1900.22L478.094,1900.22L477.799,1901.11Z" style="fill:white;"/>
                </g>
                <g transform="matrix(1,0,0,1,418.46,165)">
                    <path d="M1039,1929.68L1037.97,1932.63L1119.13,1932.63L1118.83,1933.51L1121.92,1938.22L1114.12,1960.91L1028.24,1960.91L1027.36,1963.56L1115,1963.56L1114.71,1964.44L1117.8,1969.16L1109.55,1993.16L1005.86,1993.16C1002.62,1993.16 999.767,1992.55 997.312,1991.32C994.857,1990.1 992.942,1988.4 991.568,1986.24L990.242,1984.48C987.689,1982.31 986.069,1979.49 985.381,1976.01C984.694,1972.52 985.087,1968.62 986.56,1964.3L1000.4,1924.23C1001.58,1920.89 1003.3,1917.77 1005.56,1914.88C1007.82,1911.98 1010.4,1909.45 1013.29,1907.29C1016.19,1905.13 1019.33,1903.41 1022.72,1902.14C1026.11,1900.86 1029.47,1900.22 1032.81,1900.22L1136.8,1900.22L1136.51,1901.11L1139.6,1905.82L1131.35,1929.68L1039,1929.68Z" style="fill:white;"/>
                </g>
                <g transform="matrix(1,0,0,1,418.46,165)">
                    <path d="M1120.75,1988.45L1119.86,1988.45L1150.21,1900.22L1254.49,1900.22C1258.71,1900.22 1262.27,1901.23 1265.17,1903.24C1268.07,1905.25 1270.06,1907.88 1271.14,1911.12L1272.31,1912.89C1275.16,1917.21 1275.55,1922.41 1273.49,1928.5L1251.25,1993.16L1216.34,1993.16L1213.4,1988.45L1212.51,1988.45L1232.69,1929.68L1180.55,1929.68L1158.75,1993.16L1123.84,1993.16L1120.75,1988.45Z" style="fill:white;"/>
                </g>
                <g transform="matrix(1,0,0,1,418.46,165)">
                    <path d="M1463.8,1929.68L1462.77,1932.63L1543.93,1932.63L1543.63,1933.51L1546.73,1938.22L1538.92,1960.91L1453.05,1960.91L1452.16,1963.56L1539.8,1963.56L1539.51,1964.44L1542.6,1969.16L1534.35,1993.16L1430.66,1993.16C1427.42,1993.16 1424.57,1992.55 1422.11,1991.32C1419.66,1990.1 1417.74,1988.4 1416.37,1986.24L1415.04,1984.48C1412.49,1982.31 1410.87,1979.49 1410.18,1976.01C1409.5,1972.52 1409.89,1968.62 1411.36,1964.3L1425.21,1924.23C1426.39,1920.89 1428.1,1917.77 1430.36,1914.88C1432.62,1911.98 1435.2,1909.45 1438.1,1907.29C1440.99,1905.13 1444.13,1903.41 1447.52,1902.14C1450.91,1900.86 1454.27,1900.22 1457.61,1900.22L1561.6,1900.22L1561.31,1901.11L1564.4,1905.82L1556.15,1929.68L1463.8,1929.68Z" style="fill:white;"/>
                </g>
                <g transform="matrix(1,0,0,1,418.46,165)">
                    <path d="M847.07,1964.3L868.428,1902.28L900.097,1902.28L878.297,1965.62L970.652,1965.62L963.581,1986.39L861.653,1986.39C858.608,1986.39 855.957,1985.8 853.699,1984.62C851.44,1983.44 849.648,1981.85 848.322,1979.84C846.997,1977.82 846.187,1975.49 845.892,1972.84C845.597,1970.19 845.99,1967.34 847.07,1964.3Z" style="fill:white;"/>
                </g>
                <g transform="matrix(1,0,0,1,418.46,165)">
                    <path d="M280.717,1964.3L294.563,1924.23C295.545,1921.29 297.091,1918.46 299.203,1915.76C301.314,1913.06 303.72,1910.73 306.42,1908.77C309.121,1906.8 311.993,1905.23 315.037,1904.05C318.081,1902.87 321.125,1902.28 324.169,1902.28L426.098,1902.28L419.028,1922.9L326.673,1922.9L311.944,1965.62L404.298,1965.62L397.228,1986.39L295.299,1986.39C292.255,1986.39 289.604,1985.8 287.345,1984.62C285.087,1983.44 283.295,1981.85 281.969,1979.84C280.643,1977.82 279.833,1975.49 279.539,1972.84C279.244,1970.19 279.637,1967.34 280.717,1964.3Z" style="fill:white;"/>
                </g>
                <g transform="matrix(1,0,0,1,418.46,165)">
                    <path d="M507.111,1986.39L538.78,1986.39L567.65,1902.28L535.981,1902.28L524.197,1936.75L463.511,1936.75L475.295,1902.28L443.626,1902.28L414.756,1986.39L446.425,1986.39L456.736,1956.19L517.422,1956.19L507.111,1986.39Z" style="fill:white;"/>
                </g>
                <g transform="matrix(1,0,0,1,418.46,165)">
                    <path d="M1384.11,1934.69C1387.16,1934.69 1389.81,1935.28 1392.07,1936.46C1394.32,1937.63 1396.12,1939.21 1397.44,1941.17C1398.77,1943.13 1399.53,1945.44 1399.73,1948.09C1399.92,1950.74 1399.53,1953.59 1398.55,1956.64L1395.89,1964.3C1394.82,1967.34 1393.24,1970.19 1391.18,1972.84C1389.12,1975.49 1386.74,1977.82 1384.04,1979.84C1381.34,1981.85 1378.46,1983.44 1375.42,1984.62C1372.38,1985.8 1369.33,1986.39 1366.29,1986.39L1284.1,1986.39L1284.1,1986.24C1281.45,1985.95 1279.14,1985.16 1277.17,1983.89C1275.21,1982.61 1273.66,1980.99 1272.54,1979.03C1271.41,1977.06 1270.77,1974.83 1270.62,1972.32C1270.47,1969.82 1270.89,1967.14 1271.87,1964.3L1285.72,1924.23C1286.7,1921.29 1288.25,1918.46 1290.36,1915.76C1292.47,1913.06 1294.88,1910.73 1297.58,1908.77C1300.28,1906.8 1303.15,1905.23 1306.19,1904.05C1309.24,1902.87 1312.28,1902.28 1315.32,1902.28L1417.25,1902.28L1410.18,1922.9L1317.68,1922.9L1302.95,1965.62L1363.79,1965.62L1367.76,1954.13L1325.34,1954.13L1332.12,1934.69L1384.11,1934.69Z" style="fill:white;"/>
                </g>
                <g transform="matrix(1,0,0,1,418.46,165)">
                    <path d="M1023.83,1954.13L1109.7,1954.13L1116.48,1934.69L1030.6,1934.69L1034.58,1922.9L1126.93,1922.9L1134,1902.28L1032.07,1902.28C1029.03,1902.28 1025.99,1902.87 1022.94,1904.05C1019.9,1905.23 1017.02,1906.8 1014.33,1908.77C1011.62,1910.73 1009.22,1913.06 1007.11,1915.76C1005,1918.46 1003.45,1921.29 1002.47,1924.23L988.622,1964.3C987.542,1967.34 987.149,1970.19 987.443,1972.84C987.738,1975.49 988.548,1977.82 989.874,1979.84C991.199,1981.85 992.992,1983.44 995.25,1984.62C997.509,1985.8 1000.16,1986.39 1003.2,1986.39L1105.13,1986.39L1112.2,1965.62L1019.85,1965.62L1023.83,1954.13Z" style="fill:white;"/>
                </g>
                <g transform="matrix(1,0,0,1,418.46,165)">
                    <path d="M1236.96,1922.9L1215.16,1986.39L1246.83,1986.39L1268.48,1923.35C1269.47,1920.5 1269.79,1917.8 1269.44,1915.25C1269.1,1912.69 1268.24,1910.46 1266.86,1908.54C1265.49,1906.63 1263.67,1905.11 1261.41,1903.98C1259.15,1902.85 1256.6,1902.28 1253.76,1902.28L1151.53,1902.28L1122.66,1986.39L1154.33,1986.39L1176.13,1922.9L1236.96,1922.9Z" style="fill:white;"/>
                </g>
                <g transform="matrix(1,0,0,1,418.46,165)">
                    <path d="M1448.63,1954.13L1534.5,1954.13L1541.28,1934.69L1455.4,1934.69L1459.38,1922.9L1551.73,1922.9L1558.81,1902.28L1456.88,1902.28C1453.83,1902.28 1450.79,1902.87 1447.74,1904.05C1444.7,1905.23 1441.83,1906.8 1439.13,1908.77C1436.43,1910.73 1434.02,1913.06 1431.91,1915.76C1429.8,1918.46 1428.25,1921.29 1427.27,1924.23L1413.42,1964.3C1412.34,1967.34 1411.95,1970.19 1412.25,1972.84C1412.54,1975.49 1413.35,1977.82 1414.68,1979.84C1416,1981.85 1417.79,1983.44 1420.05,1984.62C1422.31,1985.8 1424.96,1986.39 1428.01,1986.39L1529.93,1986.39L1537.01,1965.62L1444.65,1965.62L1448.63,1954.13Z" style="fill:white;"/>
                </g>
                <g transform="matrix(1,0,0,1,418.46,165)">
                    <path d="M705.519,1964.3L726.877,1902.28L758.545,1902.28L736.746,1965.62L829.1,1965.62L822.03,1986.39L720.101,1986.39C717.057,1986.39 714.406,1985.8 712.147,1984.62C709.889,1983.44 708.097,1981.85 706.771,1979.84C705.445,1977.82 704.635,1975.49 704.34,1972.84C704.046,1970.19 704.439,1967.34 705.519,1964.3Z" style="fill:white;"/>
                </g>
                <g transform="matrix(1,0,0,1,418.46,165)">
                    <path d="M554.393,1988.45L553.509,1988.45L575.604,1924.23C576.782,1920.89 578.501,1917.77 580.759,1914.88C583.018,1911.98 585.595,1909.45 588.492,1907.29C591.389,1905.13 594.531,1903.41 597.919,1902.14C601.307,1900.86 604.67,1900.22 608.009,1900.22L688.138,1900.22C692.36,1900.22 695.92,1901.23 698.817,1903.24C701.714,1905.25 703.702,1907.88 704.782,1911.12L705.961,1912.89C708.808,1917.21 709.201,1922.41 707.139,1928.5L684.897,1993.16L649.988,1993.16L647.042,1988.45L646.159,1988.45L653.229,1967.83L601.086,1967.83L592.395,1993.16L557.486,1993.16L554.393,1988.45ZM610.807,1939.7L662.95,1939.7L666.338,1929.68L614.195,1929.68L610.807,1939.7Z" style="fill:white;"/>
                </g>
                <g transform="matrix(1,0,0,1,418.46,165)">
                    <path d="M709.569,1781.06L708.538,1784.01L789.698,1784.01L789.404,1784.89L792.497,1789.6L784.69,1812.29L698.817,1812.29L697.933,1814.94L785.574,1814.94L785.28,1815.82L788.373,1820.53L780.124,1844.54L676.428,1844.54C673.187,1844.54 670.34,1843.93 667.885,1842.7C665.43,1841.48 663.515,1839.78 662.14,1837.62L660.814,1835.85C658.261,1833.69 656.641,1830.87 655.954,1827.38C655.266,1823.9 655.659,1819.99 657.132,1815.67L670.978,1775.61C672.156,1772.27 673.875,1769.15 676.133,1766.26C678.392,1763.36 680.969,1760.83 683.866,1758.67C686.763,1756.51 689.905,1754.79 693.293,1753.52C696.681,1752.24 700.044,1751.6 703.383,1751.6L807.374,1751.6L807.079,1752.48L810.173,1757.2L801.924,1781.06L709.569,1781.06Z" style="fill:white;"/>
                </g>
                <g transform="matrix(1,0,0,1,418.46,165)">
                    <path d="M1482.73,1839.83L1481.84,1839.83L1512.18,1751.6L1616.47,1751.6C1620.69,1751.6 1624.25,1752.61 1627.15,1754.62C1630.05,1756.63 1632.04,1759.26 1633.12,1762.5L1634.29,1764.27C1637.14,1768.59 1637.53,1773.79 1635.47,1779.88L1613.23,1844.54L1578.32,1844.54L1575.38,1839.83L1574.49,1839.83L1594.67,1781.06L1542.53,1781.06L1520.73,1844.54L1485.82,1844.54L1482.73,1839.83Z" style="fill:white;"/>
                </g>
                <g transform="matrix(1,0,0,1,418.46,165)">
                    <path d="M1294.92,1844.54L1329.98,1844.54L1360.03,1757.2L1356.93,1752.48L1357.23,1751.6L1321.44,1751.6L1291.09,1839.83L1291.98,1839.83L1294.92,1844.54Z" style="fill:white;"/>
                </g>
                <g transform="matrix(1,0,0,1,418.46,165)">
                    <path d="M203.46,1835.85C200.907,1833.69 199.287,1830.87 198.6,1827.38C197.912,1823.9 198.305,1819.99 199.778,1815.67L213.624,1775.61C214.802,1772.27 216.521,1769.15 218.779,1766.26C221.038,1763.36 223.615,1760.83 226.512,1758.67C229.409,1756.51 232.551,1754.79 235.939,1753.52C239.327,1752.24 242.69,1751.6 246.029,1751.6L350.02,1751.6L349.725,1752.48L352.818,1757.2L344.57,1781.06L252.215,1781.06L240.579,1814.94L292.427,1814.94L300.234,1792.4L336.027,1792.4L335.732,1793.29L338.825,1798L329.988,1823.63C329.006,1826.38 327.312,1829.03 324.906,1831.58C322.5,1834.13 319.8,1836.37 316.805,1838.28C313.81,1840.2 310.692,1841.72 307.451,1842.85C304.211,1843.98 301.265,1844.54 298.614,1844.54L219.074,1844.54C215.833,1844.54 212.985,1843.93 210.531,1842.7C208.076,1841.48 206.161,1839.78 204.786,1837.62L203.46,1835.85Z" style="fill:white;"/>
                </g>
                <g transform="matrix(1,0,0,1,418.46,165)">
                    <path d="M475.663,1839.83L474.78,1839.83L505.123,1751.6L641.813,1751.6C646.036,1751.6 649.595,1752.61 652.492,1754.62C655.389,1756.63 657.378,1759.26 658.458,1762.5L659.342,1763.97L659.194,1763.97L659.636,1764.27C662.484,1768.59 662.877,1773.79 660.814,1779.88L638.573,1844.54L603.664,1844.54L600.57,1839.83L599.687,1839.83L619.866,1781.06L598.066,1781.06L576.267,1844.54L541.21,1844.54L538.117,1839.83L537.233,1839.83L557.413,1781.06L535.466,1781.06L513.666,1844.54L478.757,1844.54L475.663,1839.83Z" style="fill:white;"/>
                </g>
                <g transform="matrix(1,0,0,1,418.46,165)">
                    <path d="M1158.09,1814.94L1250.59,1814.94L1251.47,1812.29L1188.13,1812.29C1184.89,1812.29 1182.05,1811.67 1179.59,1810.44C1177.14,1809.22 1175.22,1807.52 1173.85,1805.36L1172.67,1803.6C1170.12,1801.43 1168.5,1798.61 1167.81,1795.13C1167.12,1791.64 1167.51,1787.74 1168.99,1783.42L1171.64,1775.61C1172.82,1772.27 1174.53,1769.15 1176.79,1766.26C1179.05,1763.36 1181.63,1760.83 1184.53,1758.67C1187.42,1756.51 1190.57,1754.79 1193.95,1753.52C1197.34,1752.24 1200.7,1751.6 1204.04,1751.6L1308.03,1751.6L1307.74,1752.48L1310.83,1757.2L1302.58,1781.06L1210.08,1781.06L1209.05,1784.01L1272.68,1784.01C1277,1784.01 1280.56,1785.01 1283.36,1787.02C1286.16,1789.04 1288.1,1791.66 1289.18,1794.9L1289.62,1795.64L1290.36,1796.53C1291.73,1798.68 1292.57,1801.16 1292.86,1803.96C1293.16,1806.76 1292.71,1809.83 1291.54,1813.17L1288.88,1820.83C1287.81,1824.07 1286.13,1827.14 1283.88,1830.04C1281.62,1832.93 1279.07,1835.46 1276.22,1837.62C1273.37,1839.78 1270.28,1841.48 1266.94,1842.7C1263.6,1843.93 1260.31,1844.54 1257.07,1844.54L1153.52,1844.54L1150.43,1839.83L1149.54,1839.83L1158.09,1814.94Z" style="fill:white;"/>
                </g>
                <g transform="matrix(1,0,0,1,418.46,165)">
                    <path d="M888.829,1776.35L887.945,1776.35L896.488,1751.6L1000.77,1751.6C1004.9,1751.6 1008.36,1752.56 1011.16,1754.47C1013.96,1756.39 1015.95,1758.91 1017.12,1762.06L1018.45,1764.12C1019.82,1766.28 1020.63,1768.76 1020.88,1771.56C1021.12,1774.36 1020.71,1777.43 1019.63,1780.76L1005.78,1820.83C1004.7,1823.97 1003.03,1826.97 1000.77,1829.81C998.515,1832.66 995.937,1835.19 993.041,1837.4C990.144,1839.61 987.051,1841.35 983.761,1842.63C980.471,1843.9 977.206,1844.54 973.966,1844.54L870.122,1844.54L867.029,1839.83L866.145,1839.83L884.704,1785.92L920.645,1785.92L920.35,1786.8L923.443,1791.52L915.342,1814.94L967.19,1814.94L978.827,1781.06L891.922,1781.06L888.829,1776.35Z" style="fill:white;"/>
                </g>
                <g transform="matrix(1,0,0,1,418.46,165)">
                    <path d="M1068.68,1781.06L1067.65,1784.01L1148.81,1784.01L1148.51,1784.89L1151.61,1789.6L1143.8,1812.29L1057.92,1812.29L1057.04,1814.94L1144.68,1814.94L1144.39,1815.82L1147.48,1820.53L1139.23,1844.54L1035.54,1844.54C1032.3,1844.54 1029.45,1843.93 1026.99,1842.7C1024.54,1841.48 1022.62,1839.78 1021.25,1837.62L1019.92,1835.85C1017.37,1833.69 1015.75,1830.87 1015.06,1827.38C1014.37,1823.9 1014.77,1819.99 1016.24,1815.67L1030.09,1775.61C1031.26,1772.27 1032.98,1769.15 1035.24,1766.26C1037.5,1763.36 1040.08,1760.83 1042.97,1758.67C1045.87,1756.51 1049.01,1754.79 1052.4,1753.52C1055.79,1752.24 1059.15,1751.6 1062.49,1751.6L1166.48,1751.6L1166.19,1752.48L1169.28,1757.2L1161.03,1781.06L1068.68,1781.06Z" style="fill:white;"/>
                </g>
                <g transform="matrix(1,0,0,1,418.46,165)">
                    <path d="M1353.55,1837.62C1355.71,1841.06 1359.14,1843.22 1363.86,1844.1L1363.71,1844.1L1364.01,1844.54L1447.82,1844.54C1451.06,1844.54 1454.35,1843.93 1457.69,1842.7C1461.03,1841.48 1464.12,1839.78 1466.97,1837.62C1469.81,1835.46 1472.37,1832.93 1474.62,1830.04C1476.88,1827.14 1478.55,1824.07 1479.63,1820.83L1482.28,1813.17C1483.46,1809.83 1483.9,1806.76 1483.61,1803.96C1483.32,1801.16 1482.48,1798.68 1481.11,1796.53L1479.93,1794.9C1478.85,1791.66 1476.91,1789.04 1474.11,1787.02C1471.31,1785.01 1467.75,1784.01 1463.43,1784.01L1409.37,1784.01L1401.27,1807.57L1402.15,1807.57L1405.25,1812.29L1442.22,1812.29L1441.34,1814.94L1389.19,1814.94L1400.83,1781.06L1493.33,1781.06L1501.58,1757.2L1498.49,1752.48L1498.78,1751.6L1394.79,1751.6C1391.45,1751.6 1388.09,1752.24 1384.7,1753.52C1381.31,1754.79 1378.17,1756.51 1375.27,1758.67C1372.38,1760.83 1369.8,1763.36 1367.54,1766.26C1365.28,1769.15 1363.56,1772.27 1362.38,1775.61L1348.54,1815.67C1347.16,1819.8 1346.82,1823.53 1347.51,1826.87C1348.2,1830.21 1349.67,1833.01 1351.93,1835.26L1353.55,1837.62Z" style="fill:white;"/>
                </g>
                <g transform="matrix(1,0,0,1,418.46,165)">
                    <path d="M1462.84,1786.07C1465.88,1786.07 1468.54,1786.66 1470.8,1787.84C1473.05,1789.01 1474.85,1790.58 1476.17,1792.55C1477.5,1794.51 1478.26,1796.82 1478.45,1799.47C1478.65,1802.12 1478.26,1804.97 1477.28,1808.01L1474.62,1815.67C1473.55,1818.72 1471.97,1821.57 1469.91,1824.22C1467.85,1826.87 1465.47,1829.2 1462.77,1831.21C1460.07,1833.23 1457.19,1834.82 1454.15,1836C1451.11,1837.18 1448.06,1837.77 1445.02,1837.77L1362.83,1837.77L1362.83,1837.62C1360.18,1837.33 1357.87,1836.54 1355.9,1835.26C1353.94,1833.99 1352.39,1832.37 1351.27,1830.4C1350.13,1828.44 1349.5,1826.2 1349.35,1823.7C1349.2,1821.2 1349.62,1818.52 1350.6,1815.67L1364.45,1775.61C1365.43,1772.66 1366.98,1769.84 1369.09,1767.14C1371.2,1764.44 1373.6,1762.11 1376.31,1760.14C1379.01,1758.18 1381.88,1756.61 1384.92,1755.43C1387.97,1754.25 1391.01,1753.66 1394.05,1753.66L1495.98,1753.66L1488.91,1774.28L1396.41,1774.28L1381.68,1817L1442.51,1817L1446.49,1805.51L1404.07,1805.51L1410.85,1786.07L1462.84,1786.07Z" style="fill:white;"/>
                </g>
                <g transform="matrix(1,0,0,1,418.46,165)">
                    <path d="M1251.77,1817L1159.41,1817L1152.34,1837.77L1254.27,1837.77C1257.31,1837.77 1260.36,1837.18 1263.4,1836C1266.45,1834.82 1269.32,1833.23 1272.02,1831.21C1274.72,1829.2 1277.1,1826.87 1279.16,1824.22C1281.23,1821.57 1282.8,1818.72 1283.88,1815.67L1286.53,1808.01C1287.51,1804.97 1287.9,1802.12 1287.71,1799.47C1287.51,1796.82 1286.75,1794.51 1285.42,1792.55C1284.1,1790.58 1282.31,1789.01 1280.05,1787.84C1277.79,1786.66 1275.14,1786.07 1272.09,1786.07L1201.68,1786.07L1205.66,1774.28L1298.16,1774.28L1305.24,1753.66L1203.31,1753.66C1200.26,1753.66 1197.22,1754.25 1194.17,1755.43C1191.13,1756.61 1188.26,1758.18 1185.56,1760.14C1182.86,1762.11 1180.45,1764.44 1178.34,1767.14C1176.23,1769.84 1174.68,1772.66 1173.7,1775.61L1171.05,1783.42C1169.97,1786.46 1169.55,1789.31 1169.8,1791.96C1170.04,1794.61 1170.83,1796.94 1172.15,1798.95C1173.48,1800.97 1175.27,1802.56 1177.53,1803.74C1179.79,1804.92 1182.44,1805.51 1185.48,1805.51L1255.74,1805.51L1251.77,1817Z" style="fill:white;"/>
                </g>
                <g transform="matrix(1,0,0,1,418.46,165)">
                    <path d="M694.398,1805.51L780.272,1805.51L787.047,1786.07L701.174,1786.07L705.151,1774.28L797.505,1774.28L804.575,1753.66L702.647,1753.66C699.602,1753.66 696.558,1754.25 693.514,1755.43C690.47,1756.61 687.598,1758.18 684.897,1760.14C682.197,1762.11 679.791,1764.44 677.68,1767.14C675.569,1769.84 674.022,1772.66 673.04,1775.61L659.194,1815.67C658.114,1818.72 657.721,1821.57 658.016,1824.22C658.31,1826.87 659.121,1829.2 660.446,1831.21C661.772,1833.23 663.564,1834.82 665.823,1836C668.081,1837.18 670.732,1837.77 673.777,1837.77L775.705,1837.77L782.776,1817L690.421,1817L694.398,1805.51Z" style="fill:white;"/>
                </g>
                <g transform="matrix(1,0,0,1,418.46,165)">
                    <path d="M247.796,1774.28L340.151,1774.28L347.221,1753.66L245.292,1753.66C242.248,1753.66 239.204,1754.25 236.16,1755.43C233.116,1756.61 230.244,1758.18 227.543,1760.14C224.843,1762.11 222.437,1764.44 220.326,1767.14C218.214,1769.84 216.668,1772.66 215.686,1775.61L201.84,1815.67C200.76,1818.72 200.367,1821.57 200.662,1824.22C200.956,1826.87 201.766,1829.2 203.092,1831.21C204.418,1833.23 206.21,1834.82 208.468,1836C210.727,1837.18 213.378,1837.77 216.422,1837.77L295.815,1837.77C298.27,1837.77 301.019,1837.23 304.064,1836.15C307.108,1835.07 310.029,1833.64 312.828,1831.88C315.626,1830.11 318.13,1828.07 320.34,1825.76C322.549,1823.46 324.096,1821.03 324.98,1818.47L333.228,1794.46L301.412,1794.46L293.605,1817L233.067,1817L247.796,1774.28Z" style="fill:white;"/>
                </g>
                <g transform="matrix(1,0,0,1,418.46,165)">
                    <path d="M907.83,1817L917.846,1787.98L886.03,1787.98L868.944,1837.77L971.167,1837.77C974.113,1837.77 977.133,1837.15 980.226,1835.93C983.319,1834.7 986.216,1833.05 988.916,1830.99C991.617,1828.93 994.023,1826.57 996.134,1823.92C998.245,1821.27 999.792,1818.52 1000.77,1815.67L1014.62,1775.61C1015.6,1772.66 1015.97,1769.84 1015.72,1767.14C1015.48,1764.44 1014.67,1762.11 1013.29,1760.14C1011.92,1758.18 1010.1,1756.61 1007.84,1755.43C1005.59,1754.25 1002.98,1753.66 1000.04,1753.66L897.814,1753.66L890.744,1774.28L983.098,1774.28L968.369,1817L907.83,1817Z" style="fill:white;"/>
                </g>
                <g transform="matrix(1,0,0,1,418.46,165)">
                    <path d="M561.832,1774.28L540.032,1837.77L571.848,1837.77L593.647,1774.28L624.285,1774.28L602.485,1837.77L634.154,1837.77L655.806,1774.73C656.788,1771.88 657.108,1769.18 656.764,1766.62C656.42,1764.07 655.561,1761.84 654.186,1759.92C652.811,1758.01 650.995,1756.49 648.736,1755.36C646.478,1754.23 643.925,1753.66 641.077,1753.66L506.448,1753.66L477.578,1837.77L509.394,1837.77L531.194,1774.28L561.832,1774.28Z" style="fill:white;"/>
                </g>
                <g transform="matrix(1,0,0,1,418.46,165)">
                    <path d="M1053.51,1805.51L1139.38,1805.51L1146.15,1786.07L1060.28,1786.07L1064.26,1774.28L1156.61,1774.28L1163.68,1753.66L1061.75,1753.66C1058.71,1753.66 1055.67,1754.25 1052.62,1755.43C1049.58,1756.61 1046.71,1758.18 1044.01,1760.14C1041.31,1762.11 1038.9,1764.44 1036.79,1767.14C1034.68,1769.84 1033.13,1772.66 1032.15,1775.61L1018.3,1815.67C1017.22,1818.72 1016.83,1821.57 1017.12,1824.22C1017.42,1826.87 1018.23,1829.2 1019.55,1831.21C1020.88,1833.23 1022.67,1834.82 1024.93,1836C1027.19,1837.18 1029.84,1837.77 1032.88,1837.77L1134.81,1837.77L1141.88,1817L1049.53,1817L1053.51,1805.51Z" style="fill:white;"/>
                </g>
                <g transform="matrix(1,0,0,1,418.46,165)">
                    <path d="M1322.76,1753.66L1354.43,1753.66L1325.56,1837.77L1293.89,1837.77L1322.76,1753.66Z" style="fill:white;"/>
                </g>
                <g transform="matrix(1,0,0,1,418.46,165)">
                    <path d="M1598.94,1774.28L1577.14,1837.77L1608.81,1837.77L1630.46,1774.73C1631.45,1771.88 1631.77,1769.18 1631.42,1766.62C1631.08,1764.07 1630.22,1761.84 1628.84,1759.92C1627.47,1758.01 1625.65,1756.49 1623.39,1755.36C1621.13,1754.23 1618.58,1753.66 1615.74,1753.66L1513.51,1753.66L1484.64,1837.77L1516.31,1837.77L1538.11,1774.28L1598.94,1774.28Z" style="fill:white;"/>
                </g>
                <g transform="matrix(1,0,0,1,418.46,165)">
                    <path d="M333.965,1839.83L333.081,1839.83L355.175,1775.61C356.354,1772.27 358.072,1769.15 360.331,1766.26C362.589,1763.36 365.167,1760.83 368.064,1758.67C370.96,1756.51 374.103,1754.79 377.491,1753.52C380.878,1752.24 384.242,1751.6 387.58,1751.6L467.709,1751.6C471.932,1751.6 475.492,1752.61 478.388,1754.62C481.285,1756.63 483.274,1759.26 484.354,1762.5L485.532,1764.27C488.38,1768.59 488.773,1773.79 486.711,1779.88L464.469,1844.54L429.56,1844.54L426.614,1839.83L425.73,1839.83L432.8,1819.21L380.657,1819.21L371.967,1844.54L337.058,1844.54L333.965,1839.83ZM390.379,1791.08L442.522,1791.08L445.91,1781.06L393.767,1781.06L390.379,1791.08Z" style="fill:white;"/>
                </g>
                <g transform="matrix(1,0,0,1,418.46,165)">
                    <path d="M1220.1,1632.44L1307,1632.44L1305.97,1635.38L1237.63,1635.38C1234.29,1635.38 1230.95,1636 1227.61,1637.22C1224.27,1638.45 1221.13,1640.15 1218.18,1642.31C1215.24,1644.47 1212.63,1647.02 1210.38,1649.97C1208.12,1652.91 1206.4,1656.05 1205.22,1659.39L1194.32,1691.21L1195.2,1691.21L1198.3,1695.92L1325.56,1695.92L1333.81,1671.91L1330.72,1667.2L1331.01,1666.32L1243.22,1666.32L1244.11,1663.66L1312.89,1663.66C1316.13,1663.66 1319.42,1663.05 1322.76,1661.82C1326.1,1660.6 1329.22,1658.9 1332.12,1656.74C1335.01,1654.58 1337.57,1652.05 1339.78,1649.15C1341.99,1646.26 1343.68,1643.19 1344.86,1639.95L1347.51,1632.14C1348.59,1628.8 1349.01,1625.74 1348.76,1622.94C1348.52,1620.14 1347.7,1617.66 1346.33,1615.5L1346.04,1615.2L1346.18,1615.2L1345.01,1613.73C1343.92,1610.49 1341.99,1607.89 1339.19,1605.92C1336.39,1603.96 1332.88,1602.98 1328.65,1602.98L1224.66,1602.98L1216.12,1627.72L1217,1627.72L1220.1,1632.44Z" style="fill:white;"/>
                </g>
                <g transform="matrix(1,0,0,1,418.46,165)">
                    <path d="M936.847,1632.44L1023.75,1632.44L1022.72,1635.38L954.375,1635.38C951.037,1635.38 947.698,1636 944.359,1637.22C941.021,1638.45 937.878,1640.15 934.932,1642.31C931.986,1644.47 929.384,1647.02 927.126,1649.97C924.867,1652.91 923.149,1656.05 921.97,1659.39L911.07,1691.21L911.954,1691.21L915.047,1695.92L1042.31,1695.92L1050.56,1671.91L1047.47,1667.2L1047.76,1666.32L959.973,1666.32L960.856,1663.66L1029.64,1663.66C1032.88,1663.66 1036.17,1663.05 1039.51,1661.82C1042.85,1660.6 1045.97,1658.9 1048.87,1656.74C1051.76,1654.58 1054.32,1652.05 1056.53,1649.15C1058.74,1646.26 1060.43,1643.19 1061.61,1639.95L1064.26,1632.14C1065.34,1628.8 1065.76,1625.74 1065.51,1622.94C1065.27,1620.14 1064.45,1617.66 1063.08,1615.5L1062.79,1615.2L1062.93,1615.2L1061.75,1613.73C1060.67,1610.49 1058.74,1607.89 1055.94,1605.92C1053.14,1603.96 1049.63,1602.98 1045.4,1602.98L941.413,1602.98L932.87,1627.72L933.754,1627.72L936.847,1632.44Z" style="fill:white;"/>
                </g>
                <g transform="matrix(1,0,0,1,418.46,165)">
                    <path d="M663.319,1637.44L664.939,1632.44L612.796,1632.44L590.996,1695.92L556.087,1695.92L552.994,1691.21L552.11,1691.21L582.453,1602.98L683.793,1602.98C688.408,1602.98 692.434,1604.03 695.871,1606.14C699.308,1608.26 701.665,1611.18 702.941,1614.91L704.12,1616.68C705.494,1618.64 706.329,1620.9 706.624,1623.45C706.918,1626.01 706.525,1628.85 705.445,1632L702.057,1642.16C700.977,1645.11 699.283,1647.9 696.976,1650.56C694.668,1653.21 692.041,1655.59 689.095,1657.7C686.149,1659.81 683.056,1661.58 679.816,1663C676.575,1664.42 673.482,1665.33 670.536,1665.73L683.94,1695.92L612.354,1695.92L609.261,1691.21L608.377,1691.21L626.936,1637.44L663.319,1637.44Z" style="fill:white;"/>
                </g>
                <g transform="matrix(1,0,0,1,418.46,165)">
                    <path d="M707.065,1689C708.44,1691.16 710.355,1692.85 712.81,1694.08C715.265,1695.31 718.113,1695.92 721.353,1695.92L825.05,1695.92L833.298,1671.91L830.205,1667.2L830.499,1666.32L742.858,1666.32L754.495,1632.44L846.849,1632.44L855.098,1608.58L852.005,1603.86L852.299,1602.98L748.308,1602.98C744.97,1602.98 741.606,1603.62 738.219,1604.89C734.831,1606.17 731.688,1607.89 728.792,1610.05C725.895,1612.21 723.317,1614.74 721.059,1617.63C718.8,1620.53 717.082,1623.65 715.903,1626.99L702.057,1667.05C700.584,1671.37 700.192,1675.28 700.879,1678.76C701.566,1682.25 703.187,1685.07 705.74,1687.23L707.065,1689Z" style="fill:white;"/>
                </g>
                <g transform="matrix(1,0,0,1,418.46,165)">
                    <path d="M1398.91,1602.98L1366.21,1602.98L1357.67,1627.72L1358.56,1627.72L1361.65,1632.44L1375.35,1632.44L1355.17,1691.21L1356.05,1691.21L1359.14,1695.92L1394.35,1695.92L1416.3,1632.14C1417.47,1628.71 1417.94,1625.51 1417.69,1622.57C1417.45,1619.62 1416.64,1617.07 1415.27,1614.91L1414.68,1614.03L1414.68,1614.17L1414.09,1613.29C1413.1,1610.15 1411.36,1607.64 1408.86,1605.78C1406.35,1603.91 1403.04,1602.98 1398.91,1602.98Z" style="fill:white;"/>
                </g>
                <g transform="matrix(1,0,0,1,418.46,165)">
                    <path d="M411.295,1691.21L410.411,1691.21L432.506,1626.99C433.684,1623.65 435.402,1620.53 437.661,1617.63C439.92,1614.74 442.497,1612.21 445.394,1610.05C448.291,1607.89 451.433,1606.17 454.821,1604.89C458.209,1603.62 461.572,1602.98 464.911,1602.98L568.902,1602.98L568.607,1603.86L571.7,1608.58L563.452,1632.44L471.097,1632.44L449.297,1695.92L414.388,1695.92L411.295,1691.21Z" style="fill:white;"/>
                </g>
                <g transform="matrix(1,0,0,1,418.46,165)">
                    <path d="M628.262,1639.51L611.176,1689.15L677.459,1689.15L664.35,1659.1C667.197,1659.1 670.315,1658.48 673.703,1657.26C677.091,1656.03 680.331,1654.41 683.424,1652.4C686.518,1650.38 689.292,1648.05 691.747,1645.4C694.202,1642.75 695.969,1639.95 697.049,1637L700.437,1626.84C701.517,1623.7 701.812,1620.78 701.321,1618.08C700.83,1615.38 699.75,1613.07 698.08,1611.15C696.411,1609.24 694.251,1607.74 691.599,1606.66C688.948,1605.58 686.1,1605.04 683.056,1605.04L583.779,1605.04L554.909,1689.15L586.577,1689.15L608.377,1625.66L669.21,1625.66L664.497,1639.51L628.262,1639.51Z" style="fill:white;"/>
                </g>
                <g transform="matrix(1,0,0,1,418.46,165)">
                    <path d="M1235.71,1668.38L1328.21,1668.38L1321.14,1689.15L1197.12,1689.15L1207.28,1659.39C1208.27,1656.35 1209.81,1653.5 1211.92,1650.85C1214.03,1648.2 1216.44,1645.89 1219.14,1643.93C1221.84,1641.96 1224.74,1640.39 1227.83,1639.21C1230.92,1638.03 1233.99,1637.44 1237.04,1637.44L1307.3,1637.44L1311.27,1625.66L1218.92,1625.66L1225.99,1605.04L1327.92,1605.04C1330.96,1605.04 1333.61,1605.63 1335.87,1606.81C1338.13,1607.99 1339.92,1609.56 1341.25,1611.52C1342.57,1613.49 1343.36,1615.82 1343.61,1618.52C1343.85,1621.22 1343.48,1624.04 1342.5,1626.99L1339.85,1634.79C1338.77,1637.84 1337.2,1640.69 1335.14,1643.34C1333.07,1645.99 1330.69,1648.32 1327.99,1650.33C1325.29,1652.35 1322.39,1653.94 1319.3,1655.12C1316.21,1656.3 1313.14,1656.89 1310.1,1656.89L1239.69,1656.89L1235.71,1668.38Z" style="fill:white;"/>
                </g>
                <g transform="matrix(1,0,0,1,418.46,165)">
                    <path d="M952.461,1668.38L1044.96,1668.38L1037.89,1689.15L913.869,1689.15L924.032,1659.39C925.014,1656.35 926.561,1653.5 928.672,1650.85C930.784,1648.2 933.189,1645.89 935.89,1643.93C938.59,1641.96 941.487,1640.39 944.58,1639.21C947.673,1638.03 950.742,1637.44 953.786,1637.44L1024.05,1637.44L1028.02,1625.66L935.669,1625.66L942.739,1605.04L1044.67,1605.04C1047.71,1605.04 1050.36,1605.63 1052.62,1606.81C1054.88,1607.99 1056.67,1609.56 1058,1611.52C1059.32,1613.49 1060.11,1615.82 1060.36,1618.52C1060.6,1621.22 1060.23,1624.04 1059.25,1626.99L1056.6,1634.79C1055.52,1637.84 1053.95,1640.69 1051.88,1643.34C1049.82,1645.99 1047.44,1648.32 1044.74,1650.33C1042.04,1652.35 1039.14,1653.94 1036.05,1655.12C1032.96,1656.3 1029.89,1656.89 1026.85,1656.89L956.438,1656.89L952.461,1668.38Z" style="fill:white;"/>
                </g>
                <g transform="matrix(1,0,0,1,418.46,165)">
                    <path d="M704.12,1667.05L717.965,1626.99C718.947,1624.04 720.494,1621.22 722.605,1618.52C724.716,1615.82 727.122,1613.49 729.823,1611.52C732.523,1609.56 735.395,1607.99 738.439,1606.81C741.484,1605.63 744.528,1605.04 747.572,1605.04L849.501,1605.04L842.43,1625.66L750.076,1625.66L735.346,1668.38L827.701,1668.38L820.631,1689.15L718.702,1689.15C715.658,1689.15 713.006,1688.56 710.748,1687.38C708.489,1686.2 706.697,1684.61 705.372,1682.59C704.046,1680.58 703.236,1678.25 702.941,1675.6C702.647,1672.94 703.039,1670.1 704.12,1667.05Z" style="fill:white;"/>
                </g>
                <g transform="matrix(1,0,0,1,418.46,165)">
                    <path d="M413.21,1689.15L444.879,1689.15L466.678,1625.66L559.033,1625.66L566.103,1605.04L464.174,1605.04C461.13,1605.04 458.086,1605.63 455.042,1606.81C451.998,1607.99 449.126,1609.56 446.425,1611.52C443.725,1613.49 441.319,1615.82 439.208,1618.52C437.096,1621.22 435.55,1624.04 434.568,1626.99L413.21,1689.15Z" style="fill:white;"/>
                </g>
                <g transform="matrix(1,0,0,1,418.46,165)">
                    <path d="M1398.18,1605.04C1401.12,1605.04 1403.68,1605.63 1405.84,1606.81C1408,1607.99 1409.64,1609.56 1410.77,1611.52C1411.9,1613.49 1412.52,1615.82 1412.61,1618.52C1412.71,1621.22 1412.27,1624.04 1411.29,1626.99L1389.93,1689.15L1357.97,1689.15L1379.77,1625.66L1360.47,1625.66L1367.54,1605.04L1398.18,1605.04Z" style="fill:white;"/>
                </g>
                <g transform="matrix(1,0,0,1,418.46,165)">
                    <path d="M1186.66,1602.98C1190.39,1602.98 1193.76,1604.11 1196.75,1606.37C1199.75,1608.62 1201.88,1611.47 1203.16,1614.91L1204.19,1616.38C1205.56,1618.44 1206.47,1620.83 1206.91,1623.53C1207.36,1626.23 1207.04,1629.1 1205.96,1632.14L1192.11,1672.21C1190.93,1675.55 1189.19,1678.66 1186.88,1681.56C1184.58,1684.46 1181.9,1686.96 1178.86,1689.07C1175.81,1691.18 1172.57,1692.85 1169.13,1694.08C1165.7,1695.31 1162.26,1695.92 1158.82,1695.92L1080.17,1695.92C1076.93,1695.63 1074.08,1694.82 1071.62,1693.49C1069.17,1692.17 1067.25,1690.42 1065.88,1688.26L1064.7,1686.79C1062.15,1684.63 1060.5,1681.9 1059.77,1678.62C1059.03,1675.33 1059.4,1671.47 1060.87,1667.05L1074.72,1626.99C1075.89,1623.65 1077.61,1620.51 1079.87,1617.56C1082.13,1614.61 1084.73,1612.06 1087.68,1609.9C1090.62,1607.74 1093.77,1606.05 1097.11,1604.82C1100.44,1603.59 1103.83,1602.98 1107.27,1602.98L1186.66,1602.98ZM1167.51,1625.66L1169.43,1625.66L1154.7,1668.38L1128.04,1668.38L1167.51,1625.66ZM1096.22,1668.38L1094.16,1668.38L1108.89,1625.66L1135.7,1625.66L1096.22,1668.38Z" style="fill:white;"/>
                </g>
                <g transform="matrix(1,0,0,1,418.46,165)">
                    <path d="M550.932,1636.27L554.025,1640.98L546.218,1663.66L475.369,1663.66L472.276,1658.95L471.392,1658.95L479.493,1635.38L551.226,1635.38L550.932,1636.27Z" style="fill:white;"/>
                </g>
                <g transform="matrix(1,0,0,1,418.46,165)">
                    <path d="M474.19,1656.89L541.799,1656.89L548.575,1637.44L480.966,1637.44L474.19,1656.89Z" style="fill:white;"/>
                </g>
            </g>
            <g transform="matrix(0.825762,0,0,0.825762,553.429,1939.12)">
                <g transform="matrix(178.376,0,0,178.376,327.319,-102.549)">
                    <path d="M0.468,-0.221L0.927,-0.221L0.973,-0.353L0.514,-0.353L0.468,-0.221ZM0.989,-0.361L1.01,-0.329L0.957,-0.175L0.476,-0.175L0.455,-0.207L0.449,-0.207L0.504,-0.367L0.991,-0.367L0.989,-0.361ZM0.054,-0.002L0.269,-0.002L0.417,-0.433L1.044,-0.433L1.092,-0.573L0.4,-0.573C0.379,-0.573 0.359,-0.569 0.338,-0.561C0.317,-0.553 0.298,-0.542 0.28,-0.529C0.261,-0.516 0.245,-0.5 0.231,-0.482C0.216,-0.463 0.206,-0.444 0.199,-0.424L0.054,-0.002ZM0.041,0.012L0.035,0.012L0.185,-0.424C0.193,-0.447 0.205,-0.468 0.22,-0.488C0.235,-0.507 0.253,-0.524 0.273,-0.539C0.292,-0.554 0.314,-0.565 0.337,-0.574C0.36,-0.583 0.382,-0.587 0.405,-0.587L1.111,-0.587L1.109,-0.581L1.13,-0.549L1.074,-0.387L0.447,-0.387L0.299,0.044L0.062,0.044L0.041,0.012Z" style="fill:rgb(196,3,1);fill-rule:nonzero;"/>
                </g>
                <g transform="matrix(178.376,0,0,178.376,498.916,-102.549)">
                    <path d="M0.552,-0.339L0.436,-0.002L0.886,-0.002L0.797,-0.206C0.816,-0.206 0.838,-0.21 0.861,-0.219C0.884,-0.227 0.906,-0.238 0.927,-0.252C0.948,-0.265 0.966,-0.281 0.983,-0.299C1,-0.317 1.012,-0.336 1.019,-0.356L1.042,-0.425C1.049,-0.446 1.051,-0.466 1.048,-0.485C1.045,-0.503 1.037,-0.519 1.026,-0.532C1.015,-0.545 1,-0.555 0.982,-0.562C0.964,-0.569 0.945,-0.573 0.924,-0.573L0.25,-0.573L0.054,-0.002L0.269,-0.002L0.417,-0.433L0.83,-0.433L0.798,-0.339L0.552,-0.339ZM0.79,-0.353L0.801,-0.387L0.447,-0.387L0.299,0.044L0.062,0.044L0.041,0.012L0.035,0.012L0.241,-0.587L0.929,-0.587C0.96,-0.587 0.988,-0.58 1.011,-0.566C1.034,-0.551 1.05,-0.531 1.059,-0.506L1.067,-0.494C1.076,-0.481 1.082,-0.465 1.084,-0.448C1.086,-0.431 1.083,-0.411 1.076,-0.39L1.053,-0.321C1.046,-0.301 1.034,-0.282 1.018,-0.264C1.003,-0.246 0.985,-0.23 0.965,-0.216C0.945,-0.201 0.924,-0.189 0.902,-0.18C0.88,-0.17 0.859,-0.164 0.839,-0.161L0.93,0.044L0.444,0.044L0.423,0.012L0.417,0.012L0.543,-0.353L0.79,-0.353Z" style="fill:rgb(196,3,1);fill-rule:nonzero;"/>
                </g>
                <g transform="matrix(178.376,0,0,178.376,670.514,-102.549)">
                    <path d="M0.125,-0.003C0.134,0.012 0.147,0.023 0.164,0.032C0.181,0.04 0.2,0.044 0.222,0.044L0.926,0.044L0.982,-0.119L0.961,-0.151L0.963,-0.157L0.368,-0.157L0.447,-0.387L1.074,-0.387L1.13,-0.549L1.109,-0.581L1.111,-0.587L0.405,-0.587C0.382,-0.587 0.36,-0.583 0.337,-0.574C0.314,-0.565 0.292,-0.554 0.273,-0.539C0.253,-0.524 0.235,-0.507 0.22,-0.488C0.205,-0.468 0.193,-0.447 0.185,-0.424L0.091,-0.152C0.081,-0.123 0.078,-0.096 0.083,-0.073C0.088,-0.049 0.099,-0.03 0.116,-0.015L0.125,-0.003ZM0.105,-0.152L0.199,-0.424C0.206,-0.444 0.216,-0.463 0.231,-0.482C0.245,-0.5 0.261,-0.516 0.28,-0.529C0.298,-0.542 0.317,-0.553 0.338,-0.561C0.359,-0.569 0.379,-0.573 0.4,-0.573L1.092,-0.573L1.044,-0.433L0.417,-0.433L0.317,-0.143L0.944,-0.143L0.896,-0.002L0.204,-0.002C0.183,-0.002 0.165,-0.006 0.15,-0.014C0.135,-0.022 0.123,-0.033 0.114,-0.047C0.105,-0.06 0.099,-0.076 0.097,-0.094C0.095,-0.112 0.098,-0.131 0.105,-0.152Z" style="fill:rgb(196,3,1);fill-rule:nonzero;"/>
                </g>
                <g transform="matrix(178.376,0,0,178.376,933.618,-102.549)">
                    <path d="M0.21,-0.387L0.8,-0.387L0.793,-0.367L0.329,-0.367C0.306,-0.367 0.284,-0.363 0.261,-0.355C0.238,-0.346 0.217,-0.335 0.197,-0.32C0.177,-0.305 0.159,-0.288 0.144,-0.268C0.129,-0.248 0.117,-0.227 0.109,-0.204L0.035,0.012L0.041,0.012L0.062,0.044L0.926,0.044L0.982,-0.119L0.961,-0.151L0.963,-0.157L0.367,-0.157L0.373,-0.175L0.84,-0.175C0.862,-0.175 0.884,-0.179 0.907,-0.188C0.93,-0.196 0.951,-0.207 0.971,-0.222C0.99,-0.237 1.008,-0.254 1.023,-0.274C1.037,-0.293 1.049,-0.314 1.057,-0.336L1.075,-0.389C1.082,-0.412 1.085,-0.432 1.084,-0.452C1.082,-0.47 1.076,-0.487 1.067,-0.502L1.065,-0.504L1.066,-0.504L1.058,-0.514C1.051,-0.536 1.037,-0.554 1.018,-0.567C0.999,-0.58 0.976,-0.587 0.947,-0.587L0.241,-0.587L0.183,-0.419L0.189,-0.419L0.21,-0.387ZM0.316,-0.143L0.944,-0.143L0.896,-0.002L0.054,-0.002L0.123,-0.204C0.13,-0.225 0.14,-0.244 0.155,-0.262C0.169,-0.28 0.185,-0.296 0.204,-0.309C0.222,-0.322 0.242,-0.333 0.263,-0.341C0.284,-0.349 0.304,-0.353 0.325,-0.353L0.802,-0.353L0.829,-0.433L0.202,-0.433L0.25,-0.573L0.942,-0.573C0.963,-0.573 0.981,-0.569 0.996,-0.561C1.011,-0.553 1.024,-0.542 1.033,-0.529C1.042,-0.516 1.047,-0.5 1.049,-0.482C1.05,-0.463 1.048,-0.444 1.041,-0.424L1.023,-0.371C1.016,-0.35 1.005,-0.331 0.991,-0.313C0.977,-0.295 0.961,-0.279 0.943,-0.266C0.924,-0.252 0.905,-0.241 0.884,-0.233C0.862,-0.225 0.842,-0.221 0.821,-0.221L0.343,-0.221L0.316,-0.143Z" style="fill:rgb(196,3,1);fill-rule:nonzero;"/>
                </g>
                <g transform="matrix(178.376,0,0,178.376,1105.04,-102.549)">
                    <path d="M0.72,-0.157L0.774,-0.315L0.627,-0.157L0.72,-0.157ZM0.447,-0.387L0.391,-0.224L0.539,-0.387L0.447,-0.387ZM0.815,-0.433L0.828,-0.433L0.728,-0.143L0.547,-0.143L0.815,-0.433ZM0.331,-0.143L0.317,-0.143L0.417,-0.433L0.599,-0.433L0.331,-0.143ZM0.401,-0.573C0.38,-0.573 0.36,-0.569 0.339,-0.561C0.318,-0.553 0.298,-0.542 0.28,-0.529C0.261,-0.516 0.245,-0.5 0.231,-0.482C0.216,-0.464 0.206,-0.445 0.199,-0.424L0.105,-0.152C0.098,-0.131 0.095,-0.111 0.097,-0.094C0.099,-0.077 0.105,-0.062 0.114,-0.049C0.123,-0.036 0.136,-0.025 0.152,-0.017C0.167,-0.009 0.185,-0.004 0.205,-0.002L0.737,-0.002C0.758,-0.002 0.78,-0.006 0.802,-0.014C0.824,-0.022 0.845,-0.033 0.864,-0.046C0.883,-0.059 0.9,-0.075 0.915,-0.094C0.93,-0.112 0.941,-0.131 0.948,-0.152L1.042,-0.424C1.049,-0.443 1.05,-0.462 1.047,-0.48C1.044,-0.498 1.037,-0.514 1.027,-0.528C1.017,-0.541 1.004,-0.552 0.989,-0.561C0.974,-0.569 0.957,-0.573 0.94,-0.573L0.401,-0.573ZM0.945,-0.587C0.97,-0.587 0.993,-0.579 1.014,-0.564C1.034,-0.549 1.048,-0.529 1.057,-0.506L1.064,-0.496C1.073,-0.482 1.08,-0.466 1.083,-0.448C1.086,-0.429 1.083,-0.41 1.076,-0.389L0.982,-0.117C0.974,-0.094 0.962,-0.073 0.947,-0.054C0.931,-0.034 0.913,-0.017 0.892,-0.003C0.871,0.012 0.849,0.023 0.826,0.032C0.803,0.04 0.779,0.044 0.756,0.044L0.222,0.044C0.2,0.042 0.181,0.037 0.164,0.028C0.147,0.019 0.134,0.007 0.125,-0.008L0.117,-0.018C0.1,-0.033 0.089,-0.051 0.084,-0.074C0.079,-0.096 0.081,-0.122 0.091,-0.152L0.185,-0.424C0.193,-0.447 0.205,-0.468 0.22,-0.488C0.235,-0.508 0.253,-0.525 0.273,-0.54C0.293,-0.555 0.314,-0.566 0.337,-0.575C0.36,-0.583 0.383,-0.587 0.406,-0.587L0.945,-0.587Z" style="fill:rgb(196,3,1);fill-rule:nonzero;"/>
                </g>
                <g transform="matrix(178.376,0,0,178.376,1276.63,-102.549)">
                    <path d="M0.21,-0.387L0.8,-0.387L0.793,-0.367L0.329,-0.367C0.306,-0.367 0.284,-0.363 0.261,-0.355C0.238,-0.346 0.217,-0.335 0.197,-0.32C0.177,-0.305 0.159,-0.288 0.144,-0.268C0.129,-0.248 0.117,-0.227 0.109,-0.204L0.035,0.012L0.041,0.012L0.062,0.044L0.926,0.044L0.982,-0.119L0.961,-0.151L0.963,-0.157L0.367,-0.157L0.373,-0.175L0.84,-0.175C0.862,-0.175 0.884,-0.179 0.907,-0.188C0.93,-0.196 0.951,-0.207 0.971,-0.222C0.99,-0.237 1.008,-0.254 1.023,-0.274C1.037,-0.293 1.049,-0.314 1.057,-0.336L1.075,-0.389C1.082,-0.412 1.085,-0.432 1.084,-0.452C1.082,-0.47 1.076,-0.487 1.067,-0.502L1.065,-0.504L1.066,-0.504L1.058,-0.514C1.051,-0.536 1.037,-0.554 1.018,-0.567C0.999,-0.58 0.976,-0.587 0.947,-0.587L0.241,-0.587L0.183,-0.419L0.189,-0.419L0.21,-0.387ZM0.316,-0.143L0.944,-0.143L0.896,-0.002L0.054,-0.002L0.123,-0.204C0.13,-0.225 0.14,-0.244 0.155,-0.262C0.169,-0.28 0.185,-0.296 0.204,-0.309C0.222,-0.322 0.242,-0.333 0.263,-0.341C0.284,-0.349 0.304,-0.353 0.325,-0.353L0.802,-0.353L0.829,-0.433L0.202,-0.433L0.25,-0.573L0.942,-0.573C0.963,-0.573 0.981,-0.569 0.996,-0.561C1.011,-0.553 1.024,-0.542 1.033,-0.529C1.042,-0.516 1.047,-0.5 1.049,-0.482C1.05,-0.463 1.048,-0.444 1.041,-0.424L1.023,-0.371C1.016,-0.35 1.005,-0.331 0.991,-0.313C0.977,-0.295 0.961,-0.279 0.943,-0.266C0.924,-0.252 0.905,-0.241 0.884,-0.233C0.862,-0.225 0.842,-0.221 0.821,-0.221L0.343,-0.221L0.316,-0.143Z" style="fill:rgb(196,3,1);fill-rule:nonzero;"/>
                </g>
                <g transform="matrix(178.376,0,0,178.376,1448.05,-102.549)">
                    <path d="M0.463,-0.587L0.241,-0.587L0.183,-0.419L0.189,-0.419L0.21,-0.387L0.303,-0.387L0.166,0.012L0.172,0.012L0.193,0.044L0.432,0.044L0.581,-0.389C0.589,-0.412 0.592,-0.434 0.591,-0.454C0.589,-0.474 0.583,-0.491 0.574,-0.506L0.57,-0.512L0.57,-0.511L0.566,-0.517C0.559,-0.538 0.548,-0.555 0.531,-0.568C0.514,-0.581 0.491,-0.587 0.463,-0.587ZM0.458,-0.573C0.478,-0.573 0.495,-0.569 0.51,-0.561C0.525,-0.553 0.536,-0.542 0.544,-0.529C0.551,-0.516 0.555,-0.5 0.556,-0.482C0.557,-0.463 0.554,-0.444 0.547,-0.424L0.402,-0.002L0.185,-0.002L0.333,-0.433L0.202,-0.433L0.25,-0.573L0.458,-0.573Z" style="fill:rgb(196,3,1);fill-rule:nonzero;"/>
                </g>
                <g transform="matrix(178.376,0,0,178.376,62.2524,77.4318)">
                    <path d="M0.417,-0.433L1.044,-0.433L1.092,-0.573L0.4,-0.573C0.379,-0.573 0.359,-0.569 0.338,-0.561C0.317,-0.553 0.298,-0.542 0.28,-0.529C0.261,-0.516 0.245,-0.5 0.231,-0.482C0.216,-0.463 0.206,-0.444 0.199,-0.424L0.105,-0.152C0.098,-0.131 0.095,-0.112 0.097,-0.094C0.099,-0.076 0.105,-0.06 0.114,-0.047C0.123,-0.033 0.135,-0.022 0.15,-0.014C0.165,-0.006 0.183,-0.002 0.204,-0.002L0.743,-0.002C0.76,-0.002 0.778,-0.006 0.799,-0.013C0.82,-0.02 0.84,-0.03 0.859,-0.042C0.878,-0.054 0.895,-0.068 0.91,-0.084C0.925,-0.099 0.935,-0.116 0.941,-0.133L0.997,-0.296L0.781,-0.296L0.728,-0.143L0.317,-0.143L0.417,-0.433ZM0.116,-0.015C0.099,-0.03 0.088,-0.049 0.083,-0.073C0.078,-0.096 0.081,-0.123 0.091,-0.152L0.185,-0.424C0.193,-0.447 0.205,-0.468 0.22,-0.488C0.235,-0.507 0.253,-0.524 0.273,-0.539C0.292,-0.554 0.314,-0.565 0.337,-0.574C0.36,-0.583 0.382,-0.587 0.405,-0.587L1.111,-0.587L1.109,-0.581L1.13,-0.549L1.074,-0.387L0.447,-0.387L0.368,-0.157L0.72,-0.157L0.773,-0.31L1.016,-0.31L1.014,-0.304L1.035,-0.272L0.975,-0.098C0.968,-0.079 0.957,-0.061 0.941,-0.044C0.924,-0.027 0.906,-0.012 0.886,0.002C0.865,0.015 0.844,0.025 0.822,0.033C0.8,0.04 0.78,0.044 0.762,0.044L0.222,0.044C0.2,0.044 0.181,0.04 0.164,0.032C0.147,0.023 0.134,0.012 0.125,-0.003L0.116,-0.015Z" style="fill:rgb(196,3,1);fill-rule:nonzero;"/>
                </g>
                <g transform="matrix(178.376,0,0,178.376,233.672,77.4318)">
                    <path d="M0.424,-0.319L0.778,-0.319L0.801,-0.387L0.447,-0.387L0.424,-0.319ZM0.417,-0.433L0.83,-0.433L0.786,-0.305L0.373,-0.305L0.417,-0.433ZM0.741,-0.173L0.682,-0.002L0.897,-0.002L1.044,-0.43C1.051,-0.449 1.053,-0.468 1.051,-0.485C1.048,-0.502 1.042,-0.518 1.033,-0.531C1.024,-0.544 1.011,-0.554 0.996,-0.562C0.981,-0.569 0.963,-0.573 0.944,-0.573L0.4,-0.573C0.379,-0.573 0.359,-0.569 0.338,-0.561C0.317,-0.553 0.298,-0.542 0.28,-0.529C0.261,-0.516 0.245,-0.5 0.231,-0.482C0.216,-0.463 0.206,-0.444 0.199,-0.424L0.054,-0.002L0.269,-0.002L0.328,-0.173L0.741,-0.173ZM0.041,0.012L0.035,0.012L0.185,-0.424C0.193,-0.447 0.205,-0.468 0.22,-0.488C0.235,-0.507 0.253,-0.524 0.273,-0.539C0.292,-0.554 0.314,-0.565 0.337,-0.574C0.36,-0.583 0.382,-0.587 0.405,-0.587L0.949,-0.587C0.978,-0.587 1.002,-0.58 1.022,-0.567C1.041,-0.553 1.055,-0.535 1.062,-0.513L1.07,-0.501C1.089,-0.472 1.092,-0.436 1.078,-0.395L0.927,0.044L0.69,0.044L0.67,0.012L0.664,0.012L0.712,-0.128L0.358,-0.128L0.299,0.044L0.062,0.044L0.041,0.012Z" style="fill:rgb(196,3,1);fill-rule:nonzero;"/>
                </g>
                <g transform="matrix(178.376,0,0,178.376,405.269,77.4318)">
                    <path d="M0.626,-0.433L0.478,-0.002L0.694,-0.002L0.842,-0.433L1.05,-0.433L0.902,-0.002L1.117,-0.002L1.264,-0.43C1.271,-0.449 1.273,-0.468 1.271,-0.485C1.268,-0.502 1.262,-0.518 1.253,-0.531C1.244,-0.544 1.231,-0.554 1.216,-0.562C1.201,-0.569 1.183,-0.573 1.164,-0.573L0.25,-0.573L0.054,-0.002L0.27,-0.002L0.418,-0.433L0.626,-0.433ZM0.041,0.012L0.035,0.012L0.241,-0.587L1.169,-0.587C1.198,-0.587 1.222,-0.58 1.242,-0.567C1.261,-0.553 1.275,-0.535 1.282,-0.513L1.288,-0.503L1.287,-0.503L1.29,-0.501C1.309,-0.472 1.312,-0.436 1.298,-0.395L1.147,0.044L0.91,0.044L0.889,0.012L0.883,0.012L1.02,-0.387L0.872,-0.387L0.724,0.044L0.486,0.044L0.465,0.012L0.459,0.012L0.596,-0.387L0.447,-0.387L0.299,0.044L0.062,0.044L0.041,0.012Z" style="fill:rgb(196,3,1);fill-rule:nonzero;"/>
                </g>
                <g transform="matrix(178.376,0,0,178.376,616.109,77.4318)">
                    <path d="M0.344,-0.221L0.927,-0.221L0.973,-0.353L0.39,-0.353L0.417,-0.433L1.044,-0.433L1.092,-0.573L0.4,-0.573C0.379,-0.573 0.359,-0.569 0.338,-0.561C0.317,-0.553 0.298,-0.542 0.28,-0.529C0.261,-0.516 0.245,-0.5 0.231,-0.482C0.216,-0.463 0.206,-0.444 0.199,-0.424L0.105,-0.152C0.098,-0.131 0.095,-0.112 0.097,-0.094C0.099,-0.076 0.105,-0.06 0.114,-0.047C0.123,-0.033 0.135,-0.022 0.15,-0.014C0.165,-0.006 0.183,-0.002 0.204,-0.002L0.896,-0.002L0.944,-0.143L0.317,-0.143L0.344,-0.221ZM0.447,-0.387L0.44,-0.367L0.991,-0.367L0.989,-0.361L1.01,-0.329L0.957,-0.175L0.374,-0.175L0.368,-0.157L0.963,-0.157L0.961,-0.151L0.982,-0.119L0.926,0.044L0.222,0.044C0.2,0.044 0.181,0.04 0.164,0.032C0.147,0.023 0.134,0.012 0.125,-0.003L0.116,-0.015C0.099,-0.03 0.088,-0.049 0.083,-0.073C0.078,-0.096 0.081,-0.123 0.091,-0.152L0.185,-0.424C0.193,-0.447 0.205,-0.468 0.22,-0.488C0.235,-0.507 0.253,-0.524 0.273,-0.539C0.292,-0.554 0.314,-0.565 0.337,-0.574C0.36,-0.583 0.382,-0.587 0.405,-0.587L1.111,-0.587L1.109,-0.581L1.13,-0.549L1.074,-0.387L0.447,-0.387Z" style="fill:rgb(196,3,1);fill-rule:nonzero;"/>
                </g>
                <g transform="matrix(178.376,0,0,178.376,879.213,77.4318)">
                    <path d="M0.318,-0.143L0.386,-0.34L0.17,-0.34L0.054,-0.002L0.748,-0.002C0.768,-0.002 0.789,-0.006 0.81,-0.015C0.83,-0.023 0.85,-0.034 0.869,-0.048C0.887,-0.062 0.903,-0.078 0.918,-0.096C0.932,-0.114 0.942,-0.133 0.949,-0.152L1.043,-0.424C1.05,-0.444 1.052,-0.463 1.051,-0.482C1.049,-0.5 1.043,-0.516 1.034,-0.529C1.025,-0.542 1.012,-0.553 0.997,-0.561C0.982,-0.569 0.964,-0.573 0.944,-0.573L0.25,-0.573L0.202,-0.433L0.829,-0.433L0.729,-0.143L0.318,-0.143ZM0.189,-0.419L0.183,-0.419L0.241,-0.587L0.949,-0.587C0.977,-0.587 1,-0.58 1.02,-0.568C1.039,-0.555 1.052,-0.537 1.06,-0.516L1.069,-0.502C1.078,-0.487 1.084,-0.47 1.086,-0.452C1.087,-0.432 1.084,-0.412 1.077,-0.389L0.983,-0.117C0.976,-0.096 0.964,-0.075 0.949,-0.056C0.934,-0.037 0.916,-0.02 0.897,-0.005C0.877,0.011 0.856,0.022 0.834,0.031C0.811,0.04 0.789,0.044 0.767,0.044L0.062,0.044L0.041,0.012L0.035,0.012L0.161,-0.354L0.405,-0.354L0.403,-0.348L0.424,-0.316L0.369,-0.157L0.721,-0.157L0.8,-0.387L0.21,-0.387L0.189,-0.419Z" style="fill:rgb(196,3,1);fill-rule:nonzero;"/>
                </g>
                <g transform="matrix(178.376,0,0,178.376,1050.99,77.4318)">
                    <path d="M0.344,-0.221L0.927,-0.221L0.973,-0.353L0.39,-0.353L0.417,-0.433L1.044,-0.433L1.092,-0.573L0.4,-0.573C0.379,-0.573 0.359,-0.569 0.338,-0.561C0.317,-0.553 0.298,-0.542 0.28,-0.529C0.261,-0.516 0.245,-0.5 0.231,-0.482C0.216,-0.463 0.206,-0.444 0.199,-0.424L0.105,-0.152C0.098,-0.131 0.095,-0.112 0.097,-0.094C0.099,-0.076 0.105,-0.06 0.114,-0.047C0.123,-0.033 0.135,-0.022 0.15,-0.014C0.165,-0.006 0.183,-0.002 0.204,-0.002L0.896,-0.002L0.944,-0.143L0.317,-0.143L0.344,-0.221ZM0.447,-0.387L0.44,-0.367L0.991,-0.367L0.989,-0.361L1.01,-0.329L0.957,-0.175L0.374,-0.175L0.368,-0.157L0.963,-0.157L0.961,-0.151L0.982,-0.119L0.926,0.044L0.222,0.044C0.2,0.044 0.181,0.04 0.164,0.032C0.147,0.023 0.134,0.012 0.125,-0.003L0.116,-0.015C0.099,-0.03 0.088,-0.049 0.083,-0.073C0.078,-0.096 0.081,-0.123 0.091,-0.152L0.185,-0.424C0.193,-0.447 0.205,-0.468 0.22,-0.488C0.235,-0.507 0.253,-0.524 0.273,-0.539C0.292,-0.554 0.314,-0.565 0.337,-0.574C0.36,-0.583 0.382,-0.587 0.405,-0.587L1.111,-0.587L1.109,-0.581L1.13,-0.549L1.074,-0.387L0.447,-0.387Z" style="fill:rgb(196,3,1);fill-rule:nonzero;"/>
                </g>
                <g transform="matrix(178.376,0,0,178.376,1222.41,77.4318)">
                    <path d="M0.729,-0.143L0.102,-0.143L0.054,-0.002L0.746,-0.002C0.767,-0.002 0.787,-0.006 0.808,-0.014C0.829,-0.022 0.848,-0.033 0.867,-0.047C0.885,-0.06 0.901,-0.076 0.915,-0.094C0.929,-0.112 0.94,-0.131 0.947,-0.152L0.965,-0.204C0.972,-0.225 0.974,-0.244 0.973,-0.262C0.972,-0.28 0.966,-0.296 0.958,-0.309C0.949,-0.322 0.936,-0.333 0.921,-0.341C0.906,-0.349 0.888,-0.353 0.867,-0.353L0.389,-0.353L0.416,-0.433L1.044,-0.433L1.092,-0.573L0.4,-0.573C0.379,-0.573 0.359,-0.569 0.338,-0.561C0.317,-0.553 0.298,-0.542 0.28,-0.529C0.261,-0.516 0.245,-0.5 0.231,-0.482C0.216,-0.463 0.206,-0.444 0.199,-0.424L0.181,-0.371C0.174,-0.35 0.171,-0.331 0.173,-0.313C0.174,-0.295 0.18,-0.279 0.189,-0.266C0.198,-0.252 0.21,-0.241 0.225,-0.233C0.24,-0.225 0.258,-0.221 0.279,-0.221L0.756,-0.221L0.729,-0.143ZM0.093,-0.157L0.721,-0.157L0.727,-0.175L0.297,-0.175C0.275,-0.175 0.256,-0.179 0.239,-0.188C0.222,-0.196 0.209,-0.207 0.2,-0.222L0.192,-0.234C0.175,-0.249 0.164,-0.268 0.159,-0.292C0.154,-0.315 0.157,-0.342 0.167,-0.371L0.185,-0.424C0.193,-0.447 0.205,-0.468 0.22,-0.488C0.235,-0.507 0.253,-0.524 0.273,-0.539C0.292,-0.554 0.314,-0.565 0.337,-0.574C0.36,-0.583 0.382,-0.587 0.405,-0.587L1.111,-0.587L1.109,-0.581L1.13,-0.549L1.074,-0.387L0.446,-0.387L0.439,-0.367L0.871,-0.367C0.9,-0.367 0.925,-0.36 0.944,-0.347C0.963,-0.333 0.976,-0.315 0.983,-0.293L0.986,-0.288L0.991,-0.282C1,-0.267 1.006,-0.251 1.008,-0.232C1.01,-0.213 1.007,-0.192 0.999,-0.169L0.981,-0.117C0.974,-0.095 0.962,-0.074 0.947,-0.055C0.932,-0.035 0.914,-0.018 0.895,-0.003C0.876,0.012 0.855,0.023 0.832,0.032C0.809,0.04 0.787,0.044 0.765,0.044L0.062,0.044L0.041,0.012L0.035,0.012L0.093,-0.157Z" style="fill:rgb(196,3,1);fill-rule:nonzero;"/>
                </g>
                <g transform="matrix(178.376,0,0,178.376,1393.83,77.4318)">
                    <path d="M0.061,0.044L0.299,0.044L0.503,-0.549L0.482,-0.581L0.484,-0.587L0.241,-0.587L0.035,0.012L0.041,0.012L0.061,0.044ZM0.25,-0.573L0.465,-0.573L0.269,-0.002L0.054,-0.002L0.25,-0.573Z" style="fill:rgb(196,3,1);fill-rule:nonzero;"/>
                </g>
                <g transform="matrix(178.376,0,0,178.376,1453.41,77.4318)">
                    <path d="M0.125,-0.003C0.14,0.02 0.163,0.035 0.195,0.041L0.194,0.041L0.196,0.044L0.765,0.044C0.787,0.044 0.809,0.04 0.832,0.032C0.855,0.023 0.876,0.012 0.895,-0.003C0.914,-0.018 0.932,-0.035 0.947,-0.055C0.962,-0.074 0.974,-0.095 0.981,-0.117L0.999,-0.169C1.007,-0.192 1.01,-0.213 1.008,-0.232C1.006,-0.251 1,-0.267 0.991,-0.282L0.983,-0.293C0.976,-0.315 0.963,-0.333 0.944,-0.347C0.925,-0.36 0.9,-0.367 0.871,-0.367L0.504,-0.367L0.449,-0.207L0.455,-0.207L0.476,-0.175L0.727,-0.175L0.721,-0.157L0.367,-0.157L0.446,-0.387L1.074,-0.387L1.13,-0.549L1.109,-0.581L1.111,-0.587L0.405,-0.587C0.382,-0.587 0.36,-0.583 0.337,-0.574C0.314,-0.565 0.292,-0.554 0.273,-0.539C0.253,-0.524 0.235,-0.507 0.22,-0.488C0.205,-0.468 0.193,-0.447 0.185,-0.424L0.091,-0.152C0.082,-0.124 0.079,-0.099 0.084,-0.076C0.089,-0.053 0.099,-0.034 0.114,-0.019L0.125,-0.003ZM0.867,-0.353C0.888,-0.353 0.906,-0.349 0.921,-0.341C0.936,-0.333 0.949,-0.322 0.958,-0.309C0.966,-0.296 0.972,-0.28 0.973,-0.262C0.974,-0.244 0.972,-0.225 0.965,-0.204L0.947,-0.152C0.94,-0.131 0.929,-0.112 0.915,-0.094C0.901,-0.076 0.885,-0.06 0.867,-0.047C0.848,-0.033 0.829,-0.022 0.808,-0.014C0.787,-0.006 0.767,-0.002 0.746,-0.002L0.188,-0.002L0.188,-0.003C0.17,-0.005 0.154,-0.01 0.141,-0.019C0.128,-0.028 0.117,-0.039 0.11,-0.052C0.102,-0.065 0.097,-0.081 0.097,-0.098C0.095,-0.115 0.098,-0.133 0.105,-0.152L0.199,-0.424C0.206,-0.444 0.216,-0.463 0.231,-0.482C0.245,-0.5 0.261,-0.516 0.28,-0.529C0.298,-0.542 0.317,-0.553 0.338,-0.561C0.359,-0.569 0.379,-0.573 0.4,-0.573L1.092,-0.573L1.044,-0.433L0.416,-0.433L0.316,-0.143L0.729,-0.143L0.756,-0.221L0.468,-0.221L0.514,-0.353L0.867,-0.353Z" style="fill:rgb(196,3,1);fill-rule:nonzero;"/>
                </g>
                <g transform="matrix(178.376,0,0,178.376,1624.82,77.4318)">
                    <path d="M0.83,-0.433L0.682,-0.002L0.897,-0.002L1.044,-0.43C1.051,-0.449 1.053,-0.468 1.051,-0.485C1.048,-0.502 1.042,-0.518 1.033,-0.531C1.024,-0.544 1.011,-0.554 0.996,-0.562C0.981,-0.569 0.963,-0.573 0.944,-0.573L0.25,-0.573L0.054,-0.002L0.269,-0.002L0.417,-0.433L0.83,-0.433ZM0.041,0.012L0.035,0.012L0.241,-0.587L0.949,-0.587C0.978,-0.587 1.002,-0.58 1.022,-0.567C1.041,-0.553 1.055,-0.535 1.062,-0.513L1.07,-0.501C1.089,-0.472 1.092,-0.436 1.078,-0.395L0.927,0.044L0.69,0.044L0.67,0.012L0.664,0.012L0.801,-0.387L0.447,-0.387L0.299,0.044L0.062,0.044L0.041,0.012Z" style="fill:rgb(196,3,1);fill-rule:nonzero;"/>
                </g>
                <g transform="matrix(178.376,0,0,178.376,157.773,257.413)">
                    <path d="M0.125,-0.003C0.134,0.012 0.147,0.023 0.164,0.032C0.181,0.04 0.2,0.044 0.222,0.044L0.926,0.044L0.982,-0.119L0.961,-0.151L0.963,-0.157L0.368,-0.157L0.447,-0.387L1.074,-0.387L1.13,-0.549L1.109,-0.581L1.111,-0.587L0.405,-0.587C0.382,-0.587 0.36,-0.583 0.337,-0.574C0.314,-0.565 0.292,-0.554 0.273,-0.539C0.253,-0.524 0.235,-0.507 0.22,-0.488C0.205,-0.468 0.193,-0.447 0.185,-0.424L0.091,-0.152C0.081,-0.123 0.078,-0.096 0.083,-0.073C0.088,-0.049 0.099,-0.03 0.116,-0.015L0.125,-0.003ZM0.105,-0.152L0.199,-0.424C0.206,-0.444 0.216,-0.463 0.231,-0.482C0.245,-0.5 0.261,-0.516 0.28,-0.529C0.298,-0.542 0.317,-0.553 0.338,-0.561C0.359,-0.569 0.379,-0.573 0.4,-0.573L1.092,-0.573L1.044,-0.433L0.417,-0.433L0.317,-0.143L0.944,-0.143L0.896,-0.002L0.204,-0.002C0.183,-0.002 0.165,-0.006 0.15,-0.014C0.135,-0.022 0.123,-0.033 0.114,-0.047C0.105,-0.06 0.099,-0.076 0.097,-0.094C0.095,-0.112 0.098,-0.131 0.105,-0.152Z" style="fill:rgb(196,3,1);fill-rule:nonzero;"/>
                </g>
                <g transform="matrix(178.376,0,0,178.376,329.192,257.413)">
                    <path d="M0.681,-0.002L0.896,-0.002L1.092,-0.573L0.877,-0.573L0.797,-0.339L0.385,-0.339L0.465,-0.573L0.25,-0.573L0.054,-0.002L0.269,-0.002L0.339,-0.207L0.751,-0.207L0.681,-0.002ZM0.482,-0.581L0.503,-0.549L0.436,-0.353L0.789,-0.353L0.869,-0.587L1.111,-0.587L1.109,-0.581L1.13,-0.549L0.926,0.044L0.689,0.044L0.669,0.012L0.663,0.012L0.722,-0.161L0.369,-0.161L0.299,0.044L0.062,0.044L0.041,0.012L0.035,0.012L0.241,-0.587L0.484,-0.587L0.482,-0.581Z" style="fill:rgb(196,3,1);fill-rule:nonzero;"/>
                </g>
                <g transform="matrix(178.376,0,0,178.376,500.611,257.413)">
                    <path d="M0.424,-0.319L0.778,-0.319L0.801,-0.387L0.447,-0.387L0.424,-0.319ZM0.417,-0.433L0.83,-0.433L0.786,-0.305L0.373,-0.305L0.417,-0.433ZM0.741,-0.173L0.682,-0.002L0.897,-0.002L1.044,-0.43C1.051,-0.449 1.053,-0.468 1.051,-0.485C1.048,-0.502 1.042,-0.518 1.033,-0.531C1.024,-0.544 1.011,-0.554 0.996,-0.562C0.981,-0.569 0.963,-0.573 0.944,-0.573L0.4,-0.573C0.379,-0.573 0.359,-0.569 0.338,-0.561C0.317,-0.553 0.298,-0.542 0.28,-0.529C0.261,-0.516 0.245,-0.5 0.231,-0.482C0.216,-0.463 0.206,-0.444 0.199,-0.424L0.054,-0.002L0.269,-0.002L0.328,-0.173L0.741,-0.173ZM0.041,0.012L0.035,0.012L0.185,-0.424C0.193,-0.447 0.205,-0.468 0.22,-0.488C0.235,-0.507 0.253,-0.524 0.273,-0.539C0.292,-0.554 0.314,-0.565 0.337,-0.574C0.36,-0.583 0.382,-0.587 0.405,-0.587L0.949,-0.587C0.978,-0.587 1.002,-0.58 1.022,-0.567C1.041,-0.553 1.055,-0.535 1.062,-0.513L1.07,-0.501C1.089,-0.472 1.092,-0.436 1.078,-0.395L0.927,0.044L0.69,0.044L0.67,0.012L0.664,0.012L0.712,-0.128L0.358,-0.128L0.299,0.044L0.062,0.044L0.041,0.012Z" style="fill:rgb(196,3,1);fill-rule:nonzero;"/>
                </g>
                <g transform="matrix(178.376,0,0,178.376,672.208,257.413)">
                    <path d="M0.484,-0.587L0.241,-0.587L0.091,-0.152C0.081,-0.123 0.078,-0.096 0.083,-0.073C0.088,-0.049 0.099,-0.03 0.116,-0.015L0.125,-0.003C0.134,0.012 0.147,0.023 0.164,0.032C0.181,0.04 0.2,0.044 0.222,0.044L0.926,0.044L0.982,-0.119L0.961,-0.151L0.963,-0.157L0.368,-0.157L0.503,-0.549L0.482,-0.581L0.484,-0.587ZM0.105,-0.152L0.25,-0.573L0.465,-0.573L0.317,-0.143L0.944,-0.143L0.896,-0.002L0.204,-0.002C0.183,-0.002 0.165,-0.006 0.15,-0.014C0.135,-0.022 0.123,-0.033 0.114,-0.047C0.105,-0.06 0.099,-0.076 0.097,-0.094C0.095,-0.112 0.098,-0.131 0.105,-0.152Z" style="fill:rgb(196,3,1);fill-rule:nonzero;"/>
                </g>
                <g transform="matrix(178.376,0,0,178.376,843.627,257.413)">
                    <path d="M0.484,-0.587L0.241,-0.587L0.091,-0.152C0.081,-0.123 0.078,-0.096 0.083,-0.073C0.088,-0.049 0.099,-0.03 0.116,-0.015L0.125,-0.003C0.134,0.012 0.147,0.023 0.164,0.032C0.181,0.04 0.2,0.044 0.222,0.044L0.926,0.044L0.982,-0.119L0.961,-0.151L0.963,-0.157L0.368,-0.157L0.503,-0.549L0.482,-0.581L0.484,-0.587ZM0.105,-0.152L0.25,-0.573L0.465,-0.573L0.317,-0.143L0.944,-0.143L0.896,-0.002L0.204,-0.002C0.183,-0.002 0.165,-0.006 0.15,-0.014C0.135,-0.022 0.123,-0.033 0.114,-0.047C0.105,-0.06 0.099,-0.076 0.097,-0.094C0.095,-0.112 0.098,-0.131 0.105,-0.152Z" style="fill:rgb(196,3,1);fill-rule:nonzero;"/>
                </g>
                <g transform="matrix(178.376,0,0,178.376,1015.05,257.413)">
                    <path d="M0.344,-0.221L0.927,-0.221L0.973,-0.353L0.39,-0.353L0.417,-0.433L1.044,-0.433L1.092,-0.573L0.4,-0.573C0.379,-0.573 0.359,-0.569 0.338,-0.561C0.317,-0.553 0.298,-0.542 0.28,-0.529C0.261,-0.516 0.245,-0.5 0.231,-0.482C0.216,-0.463 0.206,-0.444 0.199,-0.424L0.105,-0.152C0.098,-0.131 0.095,-0.112 0.097,-0.094C0.099,-0.076 0.105,-0.06 0.114,-0.047C0.123,-0.033 0.135,-0.022 0.15,-0.014C0.165,-0.006 0.183,-0.002 0.204,-0.002L0.896,-0.002L0.944,-0.143L0.317,-0.143L0.344,-0.221ZM0.447,-0.387L0.44,-0.367L0.991,-0.367L0.989,-0.361L1.01,-0.329L0.957,-0.175L0.374,-0.175L0.368,-0.157L0.963,-0.157L0.961,-0.151L0.982,-0.119L0.926,0.044L0.222,0.044C0.2,0.044 0.181,0.04 0.164,0.032C0.147,0.023 0.134,0.012 0.125,-0.003L0.116,-0.015C0.099,-0.03 0.088,-0.049 0.083,-0.073C0.078,-0.096 0.081,-0.123 0.091,-0.152L0.185,-0.424C0.193,-0.447 0.205,-0.468 0.22,-0.488C0.235,-0.507 0.253,-0.524 0.273,-0.539C0.292,-0.554 0.314,-0.565 0.337,-0.574C0.36,-0.583 0.382,-0.587 0.405,-0.587L1.111,-0.587L1.109,-0.581L1.13,-0.549L1.074,-0.387L0.447,-0.387Z" style="fill:rgb(196,3,1);fill-rule:nonzero;"/>
                </g>
                <g transform="matrix(178.376,0,0,178.376,1186.47,257.413)">
                    <path d="M0.83,-0.433L0.682,-0.002L0.897,-0.002L1.044,-0.43C1.051,-0.449 1.053,-0.468 1.051,-0.485C1.048,-0.502 1.042,-0.518 1.033,-0.531C1.024,-0.544 1.011,-0.554 0.996,-0.562C0.981,-0.569 0.963,-0.573 0.944,-0.573L0.25,-0.573L0.054,-0.002L0.269,-0.002L0.417,-0.433L0.83,-0.433ZM0.041,0.012L0.035,0.012L0.241,-0.587L0.949,-0.587C0.978,-0.587 1.002,-0.58 1.022,-0.567C1.041,-0.553 1.055,-0.535 1.062,-0.513L1.07,-0.501C1.089,-0.472 1.092,-0.436 1.078,-0.395L0.927,0.044L0.69,0.044L0.67,0.012L0.664,0.012L0.801,-0.387L0.447,-0.387L0.299,0.044L0.062,0.044L0.041,0.012Z" style="fill:rgb(196,3,1);fill-rule:nonzero;"/>
                </g>
                <g transform="matrix(178.376,0,0,178.376,1358.06,257.413)">
                    <path d="M0.125,-0.003C0.14,0.02 0.163,0.035 0.195,0.041L0.194,0.041L0.196,0.044L0.765,0.044C0.787,0.044 0.809,0.04 0.832,0.032C0.855,0.023 0.876,0.012 0.895,-0.003C0.914,-0.018 0.932,-0.035 0.947,-0.055C0.962,-0.074 0.974,-0.095 0.981,-0.117L0.999,-0.169C1.007,-0.192 1.01,-0.213 1.008,-0.232C1.006,-0.251 1,-0.267 0.991,-0.282L0.983,-0.293C0.976,-0.315 0.963,-0.333 0.944,-0.347C0.925,-0.36 0.9,-0.367 0.871,-0.367L0.504,-0.367L0.449,-0.207L0.455,-0.207L0.476,-0.175L0.727,-0.175L0.721,-0.157L0.367,-0.157L0.446,-0.387L1.074,-0.387L1.13,-0.549L1.109,-0.581L1.111,-0.587L0.405,-0.587C0.382,-0.587 0.36,-0.583 0.337,-0.574C0.314,-0.565 0.292,-0.554 0.273,-0.539C0.253,-0.524 0.235,-0.507 0.22,-0.488C0.205,-0.468 0.193,-0.447 0.185,-0.424L0.091,-0.152C0.082,-0.124 0.079,-0.099 0.084,-0.076C0.089,-0.053 0.099,-0.034 0.114,-0.019L0.125,-0.003ZM0.867,-0.353C0.888,-0.353 0.906,-0.349 0.921,-0.341C0.936,-0.333 0.949,-0.322 0.958,-0.309C0.966,-0.296 0.972,-0.28 0.973,-0.262C0.974,-0.244 0.972,-0.225 0.965,-0.204L0.947,-0.152C0.94,-0.131 0.929,-0.112 0.915,-0.094C0.901,-0.076 0.885,-0.06 0.867,-0.047C0.848,-0.033 0.829,-0.022 0.808,-0.014C0.787,-0.006 0.767,-0.002 0.746,-0.002L0.188,-0.002L0.188,-0.003C0.17,-0.005 0.154,-0.01 0.141,-0.019C0.128,-0.028 0.117,-0.039 0.11,-0.052C0.102,-0.065 0.097,-0.081 0.097,-0.098C0.095,-0.115 0.098,-0.133 0.105,-0.152L0.199,-0.424C0.206,-0.444 0.216,-0.463 0.231,-0.482C0.245,-0.5 0.261,-0.516 0.28,-0.529C0.298,-0.542 0.317,-0.553 0.338,-0.561C0.359,-0.569 0.379,-0.573 0.4,-0.573L1.092,-0.573L1.044,-0.433L0.416,-0.433L0.316,-0.143L0.729,-0.143L0.756,-0.221L0.468,-0.221L0.514,-0.353L0.867,-0.353Z" style="fill:rgb(196,3,1);fill-rule:nonzero;"/>
                </g>
                <g transform="matrix(178.376,0,0,178.376,1529.48,257.413)">
                    <path d="M0.344,-0.221L0.927,-0.221L0.973,-0.353L0.39,-0.353L0.417,-0.433L1.044,-0.433L1.092,-0.573L0.4,-0.573C0.379,-0.573 0.359,-0.569 0.338,-0.561C0.317,-0.553 0.298,-0.542 0.28,-0.529C0.261,-0.516 0.245,-0.5 0.231,-0.482C0.216,-0.463 0.206,-0.444 0.199,-0.424L0.105,-0.152C0.098,-0.131 0.095,-0.112 0.097,-0.094C0.099,-0.076 0.105,-0.06 0.114,-0.047C0.123,-0.033 0.135,-0.022 0.15,-0.014C0.165,-0.006 0.183,-0.002 0.204,-0.002L0.896,-0.002L0.944,-0.143L0.317,-0.143L0.344,-0.221ZM0.447,-0.387L0.44,-0.367L0.991,-0.367L0.989,-0.361L1.01,-0.329L0.957,-0.175L0.374,-0.175L0.368,-0.157L0.963,-0.157L0.961,-0.151L0.982,-0.119L0.926,0.044L0.222,0.044C0.2,0.044 0.181,0.04 0.164,0.032C0.147,0.023 0.134,0.012 0.125,-0.003L0.116,-0.015C0.099,-0.03 0.088,-0.049 0.083,-0.073C0.078,-0.096 0.081,-0.123 0.091,-0.152L0.185,-0.424C0.193,-0.447 0.205,-0.468 0.22,-0.488C0.235,-0.507 0.253,-0.524 0.273,-0.539C0.292,-0.554 0.314,-0.565 0.337,-0.574C0.36,-0.583 0.382,-0.587 0.405,-0.587L1.111,-0.587L1.109,-0.581L1.13,-0.549L1.074,-0.387L0.447,-0.387Z" style="fill:rgb(196,3,1);fill-rule:nonzero;"/>
                </g>
            </g>
        </g>
    </g>
</svg>
